<?xml version="1.0" encoding="utf-8"?>
<!-- Generator: Adobe Illustrator 21.0.0, SVG Export Plug-In . SVG Version: 6.00 Build 0)  -->
<svg version="1.1" id="Layer_1" xmlns="http://www.w3.org/2000/svg" xmlns:xlink="http://www.w3.org/1999/xlink" x="0px" y="0px"
	 viewBox="0 0 535.6 620.6" style="enable-background:new 0 0 535.6 620.6;" xml:space="preserve">
<style type="text/css">
	.st0{fill:#182C56;}
	.st1{fill:#459C8E;}
	.st2{fill:#FAD374;}
	.st3{fill:#F2F2F2;}
	.st4{fill:#112039;}
	.st5{fill:#EE635B;}
	.st6{fill:#0D1B35;}
	.st7{fill:#733F49;}
	.st8{fill:#E3EFF1;}
	.st9{fill:#D8EAED;}
	.st10{fill:#F3B39C;}
	.st11{fill:#90756C;}
	.st12{fill:#ADE1EA;}
	.st13{fill:#132441;}
	.st14{fill:#EDB559;}
	.st15{fill:#FEFEFE;}
</style>
<g>
	<path class="st0" d="M200.8,28.9c-4.5-0.1-9.1-0.2-13.6-0.2c-5.7,0-5.6,0-5.7-5.5c0-6.8-0.1-13.5-0.1-20.3c92.2,0,184.5,0,276.7,0
		c0.1,0.2,0.1,0.4,0.2,0.7c0,7.5-0.2,14.9-0.1,22.4c0,2.3-0.7,2.8-2.8,2.8c-5.3-0.1-10.7,0.1-16,0.2c-1.1-0.1-2.2-0.2-3.3-0.2
		c-77.3,0-154.5,0-231.8,0C203.2,28.7,202,28.8,200.8,28.9z"/>
	<path class="st1" d="M4.3,308.4c6.1-0.1,6.1-0.1,6.1,6c0,8.7,0.1,17.3,0.1,26c0,0.6-0.1,1.1-0.1,1.7c-2.6,15-3.1,30.2-2,45.4
		c0.1,1.5-0.4,3.3,2.1,3.3c0,6.2,0,12.5,0,18.7c0,28.5,0,57,0,85.5c0,1.5-0.8,3.4,2.1,3.4c13.5-0.1,27-0.1,40.4-0.2
		c0,2.3,0,4.5,0,6.8c-13.3-0.1-26.7-0.1-40-0.2c-1.6,0-2.1,0.7-2.1,2.2c0,16.5,0,32.9,0,49.4c0,1.5,0.4,2.2,2,2.2
		c13.3-0.1,26.7-0.1,40-0.2c0,2.3,0,4.5,0,6.8c-13.3,0-26.7-0.1-40-0.2c-2.3,0-2.1,1.4-2.1,2.8c0,13.7,0,27.3,0,41
		c0,4.9,0,4.9-4.9,5c-0.6,0-1.1,0.1-1.7,0.2C4.3,512.1,4.3,410.2,4.3,308.4z"/>
	<path class="st2" d="M539,86.5c-3.7,0.2-7.3,0.4-10.9,0.7c-2,0.2-2.5-0.7-2.3-2.5c0.3-2.8,0.4-5.5,0.7-8.3c0.1-1.2,0.1-2.6,1.9-2.5
		c1.7,0.1,1.3,1.5,1.3,2.5c0,0.1,0,0.2,0,0.3c0,2.3-1.7,5.1,0,6.7c1.6,1.4,4.5,0.2,6.8,0.3c0.9,0,1.8,0,2.7,0.1
		C539,84.7,539,85.6,539,86.5z"/>
	<path class="st3" d="M458.3,3.6c-0.1-0.2-0.1-0.4-0.2-0.7c0.2,0,0.4,0,0.7,0C458.6,3.2,458.5,3.4,458.3,3.6z"/>
	<path class="st3" d="M200.8,28.9c1.2-0.1,2.4-0.2,3.6-0.2c77.3,0,154.5,0,231.8,0c1.1,0,2.2,0.1,3.3,0.2c0,81.9,0,163.7,0,245.6
		c0,4.6,0,4.6-4.8,4.5c-0.9-1.4-2.4-0.8-3.6-0.8c-34.1-0.8-68.1-0.8-102.2-0.9c-15.8-0.1-31.6-0.1-47.4-0.1
		c-0.6-2.3,6.6-4.9-0.3-6.9c-0.1,0-0.1-0.2-0.1-0.3c-0.1-2.7-2.1-2.3-3.9-2.4c-2.1-0.1-4.2,0.3-6.3,0.5c-2.1,0.2-5,1.2-6.3-0.5
		c-1.3-1.7,1.2-3.7,1.8-5.7c0.1-0.2,0.2-0.4,0.3-0.6c0.3-0.9,1.5-1.8,0.5-2.7c-1.1-0.9-2.1,0.2-3,0.7c-0.8,0.5-1.8,1-2.3,1.8
		c-3.1,4.5-7.5,4.9-12.3,4.4c-0.3-2-1.8-1.6-3.1-1.4c-6,0.9-12,1.7-19,2.7c0-6.7,0-13.4,0-20c0.8,0.1,1.5,0.1,2.3,0.3
		c10.5,2.9,21,5.7,31.4,8.9c4.7,1.5,9.4,1.7,14.1,1.1c26.9-3.5,53.4-9.3,79.9-14.8c2-0.4,2.7-1,1.9-3c-0.2-0.6-0.3-1.3-0.4-1.9
		c5.2-3,10.4-5.9,15.5-9c4-2.4,9.1-4.1,8.4-10.4c0-0.4,0.7-0.9,0.8-1.4c0.5-1.5,0.8-2.8-1.6-2.2c-1,0.2-1.7,0.4-2.1-0.8
		c-0.4-1.6-1.6-1.6-2.9-1.1c-3.6,1.2-7.2,2.3-10.8,3.4c-3.1,1-3.4,0.6-3-2.6c0.2-1.5,0.5-3.1,0.6-4.6c0.1-0.6,0.2-1.4-0.6-1.8
		c-0.9-0.4-1.5,0.2-2,0.8c-1.3,1.9-2.7,3.8-3.8,5.8c-1,1.8-2.2,2.7-4.2,2.6c-0.8-1.4-2-0.6-3-0.4c-20.3,3.6-40.7,7.1-61,10.9
		c-7.9,1.5-15.2,0.8-22.7-2.4c-13.2-5.7-26.4-11.7-39.4-17.8c-1-0.5-1.8-1.4-3-1c-5.3-3.6-10.7-7.2-16-10.8l0-0.1
		c-0.4-0.6-1-1-1.7-0.9c-0.1,0-0.1,0.7-0.2,1.1c0.5,20.9,1.1,41.7,1.6,62.6c0.1,4.5,0.9,9-0.2,13.5c0,0,0-0.1,0-0.1
		c-1.6,0.1-3.1,0.3-4.7,0.4c-0.1-3.2-0.3-6.4-0.7-9.6c-1.1-10.2-1.8-20.5-2.8-30.8c-1.2-12-2.7-24-3.7-36c-0.2-2.4,0.5-5.4,3-7.2
		c0.1,0.1,0.3,0.2,0.4,0.2c-0.1-0.1-0.2-0.3-0.3-0.4c-2.6-2.6-4.1-5.8-5.3-9.8c-1.6,2.8-2.8,4.9-4.1,7c-0.8,1.3-0.8,2.5,0.1,3.7
		c2.5,3.6,2.9,7.6,2.5,11.8c-0.3,2.8-0.5,5.5-0.7,8.3c-0.5,8.2-0.8,16.4-1.4,24.5c-1.1,13.6-2.2,27.1-2.6,40.7
		c-1.5,0.8-3.1,0.8-4.7,0.8c-1-17.8-1-35.6-3.9-53.2c-1.3-7.7-2.4-15.3-5.3-22.6c-1.2-3.2-2.9-6-6.2-7.5c1.4-2.8,0.5-5.9,0.8-8.8
		c0.2-1.6-0.5-3.3,0.5-4.8c9,0,18,0,27,0c6.7,0,6.7,0,6.3-6.8c0-1,0-2.1,0-3.1c6-2.1,7.5-6.9,7.5-12.6c0-1.7,0.1-3.3,0-5
		c-0.1-2.2,0.3-3.6,2.8-4.5c3.3-1.2,4-6.5,1-7.7c-3.6-1.5-3.1-3.9-3.1-6.6c0-2.1,0-4.2,0.1-6.3c2.6-0.2,5.1-0.6,6.2-3.5
		c1-2.6-0.1-4.8-1.8-6.6c-1.2-1.3-2.7-2.3-4.2-3.2c-2.8-1.7-5.7-3.2-8.6-4.8c1.3-0.8,0.9-2.2,0.9-3.3
		C200.8,78.5,200.8,53.7,200.8,28.9z M321.8,178C321.8,178,321.8,178,321.8,178c3.3,0,6.7,0,10,0c7.6,0,7.7,0,8.6-7.4
		c0.4-3.9,2-6.2,5.6-8.1c17.9-9.4,27.9-32.1,23.6-51.9c-5-23.3-26.2-39.9-49.3-39c-15.9,0.7-28.7,7.2-37.9,19.8
		c-16.7,22.8-11.5,53.4,12,69.1c6,4,9.8,8,10.2,15.1c0.1,1.8,1.2,2.5,3.2,2.5C312.4,177.9,317.1,178,321.8,178z M430.1,232.8
		c-0.1-5-4.2-9.1-9.2-9c-5,0.1-9,4.1-9,9.2c0,5.2,4.2,9.3,9.3,9.2C426.3,242,430.2,237.9,430.1,232.8z M406.8,137.3
		c-1.1,0.2-1.8,1.1-2.4,2c-0.7,1,0.3,1.6,0.9,2.2c2.7,2.3,5.4,4.6,8.1,6.9c1.8,1.5,2.3,2.7,0.2,4.4c-2.9,2.3-5.6,4.7-8.4,7.1
		c-1.2,1-1.7,2.1-0.4,3.3c0.9,0.8,1.5,1.9,3,0.7c4.5-3.9,9.1-7.8,13.6-11.7c1.1-1,1.4-1.7,0-2.9c-4.3-3.5-8.4-7.2-12.6-10.8
		C408.3,138,407.8,137.3,406.8,137.3z M346.5,183.6c-15-1.7-29.9-1.7-44.8-0.8C316.6,184.7,331.6,184,346.5,183.6z M345.1,189.1
		c-13.9-0.5-27.8-0.9-41.5,1C317.4,191,331.3,190.9,345.1,189.1z M337.8,196c-9.2-0.6-18.4-1.1-27.5,0.8
		C319.5,197.5,328.7,197.9,337.8,196z M324.5,203.5c0.8-0.1,2.2,0.2,2.2-1.1c0-0.8-1.1-0.9-1.9-0.9c-0.9,0.1-2.2-0.4-2.2,1.1
		C322.6,203.5,323.7,203.4,324.5,203.5z M171.4,191c2.8,0.4,5.6,1.1,8.9-1C176.7,190.4,174,190.7,171.4,191z"/>
	<path class="st3" d="M368.7,329.1c1.8-0.8,2.6,0,3.4,1.7c5.9,12,11.9,23.9,17.9,35.9c1.4,2.8,3,5.4,4.4,8.2
		c1.3,2.5,3.1,2.9,5.5,1.7c5.7-2.6,10.6-6.4,15.4-10.4c11-9,21.4-18.7,31.5-28.7c1.6-1.6,3.5-2.8,5.7-3.2c2.2-0.5,3.2-1.7,2.9-4
		c-0.2-1.2,0-2.5,0-3.7c-0.1-2,0.8-2.9,2.8-2.8c10,0,19.9,0,29.9,0c2-0.1,2.7,0.8,2.8,2.8c0.2,5.7,0.3,5.9,5.7,7
		c4.6,1,8.9,2.5,12.9,5.1c5.5,3.6,8.1,8.8,8.7,15c0.9,10.3,1.1,20.6,1.5,30.9c0.4,9.8,0.9,19.7,1.3,29.5c0.4,9.6,1.2,19.2,1.3,28.9
		c0,2.4,0.8,4.8,0.7,7.3c-0.2,4.5-0.1,4.5-4.4,4.7c-0.9-2.9-3.4-0.9-5-1.8c0.3-2.7-1.4-6.7,4.2-6c-28.3-2.1-56.3-3.3-84.3-2.4
		c0-6.8,0.1-13.6,0-20.3c-0.1-2.5,0.6-3.2,3.1-3.1c8.3,0.2,16.7,0,25,0.1c2.8,0,1.9-1.9,1.9-3.2c0-1.3,1-3.1-1.8-3.2
		c-10.6-0.4-21.4,1.4-31.9-1.4c-2.1-0.6-3.6,1.4-5.4,1.4c-11.7,0-23.3-0.1-35-0.1c0,0,0,0,0,0c0.8-0.8,0.6-1.8,0.5-2.8
		c-0.3-3.6-0.7-7.3-1-10.9c1-2.1,0.6-4.4,0.4-6.5c-0.2-2.9,0.9-3.8,3.6-3.4c6.7,0.9,13.5,0.9,20.3,0.6c5.7-0.3,11.4-0.7,17-2.3
		c-1-0.2-1.9-0.3-2.8-0.1c-5.9,1.1-11.8,1.6-17.8,1.8c-7,0.3-13.9-0.6-20.8-1.3c-0.9-0.4-1.6-1-2.3-1.8c-9.7-12-19.4-24-29.1-36
		c-1.3-1.5-1.4-2.9,0-4.3c2.4,0.1,4.3-1.1,6.4-2.1c-0.8-0.8-1.6-0.5-2.4-0.6c0-0.7,0.1-1.5-0.7-2c0.1-1.1-0.2-2.2-1.3-2.7
		c-0.1-0.3-0.2-0.6-0.3-0.9c-0.1,0.1-0.2,0.2-0.2,0.2c0.1,0.2,0.3,0.5,0.5,0.7c0,1.1,0.2,2.2,1.3,2.7c0,0.7-0.1,1.5,0.7,2
		c-0.7,1.8-3.1,1.1-4,2.6c-1.2,0-1.7-0.8-2.2-1.7c-1.2-2.5-2.6-4.9-3.2-7.7c1.6-1.3,3.4-2.1,5.3-2.7c0,0.6,0.1,1.1,0.7,1.4
		c0.1,0.3,0.2,0.6,0.3,0.9c0.1-0.1,0.2-0.1,0.3-0.2c-0.2-0.2-0.3-0.5-0.5-0.7c0-0.7,0-1.3,0-2C361.4,333.1,365.3,331.6,368.7,329.1z
		 M502.2,385.9c-0.2,0.2-0.4,0.4-0.7,0.7c0,0.1-0.1,0.2-0.1,0.3c0.1-0.1,0.1-0.2,0.2-0.3C501.8,386.4,502,386.2,502.2,385.9
		c0.1-0.1,0.1-0.2,0.2-0.3C502.3,385.8,502.3,385.8,502.2,385.9z M494.9,393.3c-0.2,0.2-0.4,0.4-0.7,0.7c-0.1,0.1-0.2,0.2-0.3,0.3
		c0.1-0.1,0.2-0.2,0.3-0.3C494.5,393.8,494.7,393.5,494.9,393.3c0.1-0.1,0.1-0.2,0.2-0.3C495,393.1,494.9,393.2,494.9,393.3z
		 M374.6,341.2c-0.7,0-1.5-0.1-2,0.7c-0.9,0-1.8,0.1-2.6-0.1c-0.7-0.1-1.3-0.2-1.4,0.7c0,0.4-0.5,0.9,0.1,1.2c0.5,0.3,1,0,1.5-0.3
		c0.8-0.5,1.7-1,2.5-1.5C373.3,341.8,374.1,341.9,374.6,341.2c0.3-0.1,0.6-0.2,0.9-0.2c-0.1-0.1-0.1-0.2-0.2-0.3
		C375,340.8,374.8,341,374.6,341.2z M482.9,334.7c-7.1,0.8-14.1,0.8-21.2,0C468.7,336.2,475.8,336.3,482.9,334.7z M489.2,333.4
		c-2.3-0.5-1.5-2.2-1.6-3.5c-0.1-1.3,0-2.7,0-4c-1.4,2.8,0.6,6-2,8.5C486.9,334.5,487.9,334.1,489.2,333.4z M438.6,386.9
		c-2.7,0.7-4.7,1.3-6.7,1.8C434,388.2,436.6,390.3,438.6,386.9z M442.5,374.8c1-2.1,1.1-4.1,0.4-6.1
		C443.6,370.7,441,372.4,442.5,374.8z M436.9,370.9c1.1,1.2,2.1,1,3.2,0.7C439.2,371.4,438.5,370.4,436.9,370.9z M365.8,343.8
		c-0.3,0.4-0.6,0.7-0.8,1c0.3,0.1,0.7,0.4,0.9,0.3c0.4-0.2,0.6-0.5,0.9-0.8C366.5,344.1,366.2,344,365.8,343.8z M469.7,409.6
		c-0.1,0-0.2-0.1-0.2-0.1c0,0.1,0,0.2,0,0.3c0.1,0,0.2,0,0.2-0.1C469.7,409.8,469.7,409.7,469.7,409.6z M446.3,385
		c0-0.1-0.1-0.2-0.1-0.2c-0.1,0-0.2,0-0.2,0c0.1,0.1,0.1,0.2,0.2,0.3C446.2,385.1,446.2,385,446.3,385z M444.3,385.5
		c-0.1,0-0.2-0.1-0.2-0.1c0,0.1,0,0.2,0,0.3c0.1,0,0.2,0,0.2-0.1C444.3,385.7,444.3,385.6,444.3,385.5z M441.9,386.2
		c0,0.1,0,0.2,0,0.2c0.1,0,0.2,0,0.2,0.1c0-0.1,0-0.2-0.1-0.3C442,386.1,442,386.2,441.9,386.2z M440.3,387c0-0.1,0-0.2-0.1-0.2
		c-0.1,0-0.2,0-0.2-0.1c0,0.1,0,0.2,0.1,0.3C440.1,387.1,440.2,387.1,440.3,387z"/>
	<path class="st0" d="M180.6,274.4c1.6,0,3.3,0.1,4.7-0.8c4.5-0.6,9-1.2,13.4-1.8c0.5,0.6,0.9,0.6,1.3-0.1l0.3-0.1l0.3,0.1
		c1.6-0.4,3.5,0.8,4.9-0.9c0,0,0,0.1,0,0.1c2.2,0.4,4.4,0,7.3-1c-3.3,0.2-3.4-1.4-3.5-3.5c-0.1-4.7,1-9.5-1.8-14
		c-0.6-1-0.5-2.5,0.3-3.5c1.7-2.6,1.6-5.5,1.5-8.3c-0.2-5.4-0.1-10.8-0.5-16.3c-0.7-9.9,1-19.9-2.8-29.5c5.3,3.6,10.7,7.2,16,10.8
		c0.4,2.2,2.4,3.5,2.8,5.9c1.7,11.8,2.1,23.7,2.6,35.7c0,6.6,0,13.2,0,20c6.9-1,12.9-1.9,19-2.7c1.3-0.2,2.7-0.6,3.1,1.4
		c0.1,7.6,0.6,15.2,1.4,22.8c0.2,1.9-0.5,2.9-2.5,3.5c-6.8,2-13.4,4.4-20.1,6.6c-2.8-0.3-5.2,1-7.7,1.9c-4.9,1.8-10.1,2.6-14.6,5.4
		c-1.1,0.5-2.2,1-3.4,1.4c-5.8,2-11.6,4-17.4,6c-1,0.2-2.1,0.5-3.1,0.7c-3.7,0.3-7.1,1.8-10.6,2.8c-8.6,2.6-17,3.1-24.2-3.2
		c-5-4.3-9.6-9.1-12.1-15.4c-0.3,0.2-0.5,0.3-0.6,0.5c-0.1,0.3-0.1,0.6-0.2,1c-0.6,4.8,0.9,8.9,3.6,12.8
		c5.3,7.7,12.1,12.6,21.9,12.8c6.3,0.1,12.4-0.9,18.2-3.2c1.3-0.5,2.7-1.2,3.8,0.5c0.4,7.4,0.8,14.9,1.2,22.3c0,3.1,0.1,6.3,0.1,9.4
		c-7.2,1.6-14.4,3.5-21.9,4.4c-6.8-0.6-13.4,0.9-20.2,0.6c-1.9-0.1-3.7,0.1-5.6,0.7c-2.7,0.4-2.6-1.3-2.6-3.2
		c-0.1-30.4-0.2-60.7-0.2-91.1c0-13.6-2-27-2.5-40.6c0-1.4,0-2.9-0.1-4.3c-0.5-9.8,3.7-16.6,12.7-20.7c6.9-3.1,13.6-6.5,20.8-8.8
		c0.3,2.5,0.5,5.1,0.9,7.6c1.9,12.2,3.8,24.5,6,36.6c0.9,5.2,0.4,11.3,6,14.6c1.4,0.9,0.5,1.7-0.2,2.7c-1.5,2.2-4,3.8-2.8,7.5
		c1.2,3.7,1,7.9,1.5,11.8c0.2,1.2-0.7,2.9,1.1,3.4C178,276,179.6,275.9,180.6,274.4z M173.7,275.7c-0.2,0.1-0.3,0.2-0.5,0.3
		c0.2,0.1,0.3,0.2,0.5,0.2c0.2,0,0.3-0.2,0.5-0.3C174,275.9,173.9,275.8,173.7,275.7z"/>
	<path class="st4" d="M389.3,415c11.7,0.1,23.3,0.2,35,0.1c1.8,0,3.3-1.9,5.4-1.4c10.5,2.7,21.3,0.9,31.9,1.4
		c2.9,0.1,1.8,1.9,1.8,3.2c0,1.3,1,3.2-1.9,3.2c-8.3-0.1-16.7,0.1-25-0.1c-2.5-0.1-3.2,0.6-3.1,3.1c0.2,6.8,0,13.6,0,20.3
		c0.1,2.8,0.1,5.6,0.2,8.4c0,16.6,0,33.2,0,49.8c0,2.2,0,4.5-0.1,6.7c0,17.8,0,35.5,0,53.3c0,0.7,0,1.4,0.1,2.1
		c0,12.8,0,25.6-0.1,38.4c-0.1,2.8-0.1,5.6-0.1,8.3c0,1.6-0.6,2.8-2.3,2.6c-1.6-0.2-3.8,1.3-4.6-1.8c-0.8-3-0.3-6-0.6-8.9
		c0.1-1.4,0.2-2.9,0.2-4.3c0-19.2,0.1-38.5,0.1-57.7c0.4-0.6,0.7-1.2,0.1-1.8l-0.1-0.2l-0.2,0c0.3-10,0.3-20.1,0-30.1
		c0-2.2,0-4.3,0-6.5c0-6.5,0.1-13.1,0.1-19.6c0-10.1-0.1-20.2-0.1-30.2c0.1-10,0.1-20,0.2-30.1c0-2.3-1.4-1.8-2.7-1.8
		c-33,0-66,0-98.9-0.1c-2,0-2.7,0.5-2.6,2.6c0.1,7.8,0.1,15.6,0.1,23.4c0,22.5-0.1,45-0.1,67.5c-0.9,3,0.5,5.9,0.4,8.9
		c-0.1,18.8-0.1,37.6-0.1,56.3c0,8.3,0.1,16.7,0.1,25c-0.2,1.2-0.4,2.3-0.3,3.5c0.3,2.7,1,5.6-1.2,7.9c-0.6,0-1.3,0-1.9,0
		c-0.1-1.4-1-1.4-2-1.3c-0.5-0.8-1.3-0.7-2-0.7c0-0.7,0-1.3,0-2c0-4.3,0-8.5,0-12.8c0-6.5,0-13.1,0-19.6c0-13.8-0.1-27.5-0.1-41.3
		c0-37.8-0.1-75.7,0-113.5c0-3.1-0.5-4.1-3.9-4.1c-27.8,0.2-55.6,0.1-83.5,0.1c-12.3,0-24.6,0-36.8,0c-2.9,0-5.7,0-8.6,0
		c-4.7,0-9.3,0.1-14-0.1c-2.6-0.1-3.5,0.9-3.5,3.5c0.1,7.8,0,15.5,0,23.3c-1.3,0-2.7,0-4,0c-0.9,0-1.8,0-2.7,0c0-7.7-0.1-15.4,0-23
		c0-2.7-0.7-3.8-3.6-3.8c-6.2,0.2-12.5,0.1-18.7,0.1c-10,0-20,0-30,0.1c-14.3,0-28.7,0.1-43,0.1c-1.8,0-2.3,0.7-2.3,2.3
		c0,8.1-0.1,16.2-0.1,24.3c0,16.7-0.1,33.3-0.1,50c0,2.2,0.1,4.5,0.1,6.7c0,17.9,0,35.7,0,53.6c0,2.2,0,4.4,0,6.6
		c0,15.8-0.1,31.6-0.1,47.4c0,1.1,0.8,2.8-0.9,3.1c-1.9,0.3-4,0.6-5.9-0.2c-1-0.4-0.4-1.8-0.4-2.8c0-14.6,0-29.2,0-43.8
		c0-1.2,0-2.4-0.1-3.7c0-2.3,0-4.5,0-6.8c0-17.8,0-35.6,0-53.4c0-2.3,0-4.5,0-6.8c0-0.3,0-0.5,0-0.8c0.1-5.5,0.1-10.9,0.2-16.4
		c0-1.9-0.8-2.9-2.9-3.1c2.6-0.1,2.9-1.4,2.9-3.4C53,465.6,53,456.8,53,448c0-6.6-0.1-13.3-0.1-19.9c0-0.8,0.1-1.6,0.1-2.3
		c0-5,0.5-4.4-4.5-4.4c-9.3,0-18.7-0.1-28,0c-2.3,0-3-0.7-3.1-3c0-2.4,0.6-3.5,3.2-3.2c1.8,0.2,3.6,0,5.3,0
		c10.6-0.1,21.1-0.2,31.7-0.3c9,0,18,0.3,27,0.1c2.2,0,4.5,0,6.7,0c6.4,0.2,12.9,0.4,19.3-0.1c8.4,0.1,16.7,0.1,25.1,0.2
		c15.6,0,31.1,0,46.7,0c2.7,0,5.4,0,8.1,0c12.4,0,24.8,0,37.2,0c14.2,0,28.4-0.1,42.6-0.1c1.8,0,3.5-0.1,5.3-0.1
		c1.2,0.1,2.4,0.2,3.6,0.2c13.5-0.1,26.9-0.2,40.4-0.2c22,0,44,0.1,66,0.1C386.9,415.2,388.1,415.1,389.3,415z"/>
	<path class="st5" d="M426,453.2c0,10.1,0.1,20.2,0.1,30.2c0,6.5-0.1,13.1-0.1,19.6c-1.7,0-3.3,0-5,0c-5.4,0-5.2,0-5.2,5.5
		c0,31.7,0,63.4-0.1,95.2c-3.1,0.1-6.2,0.2-9.3,0.2c-4.1-8.6-7.2-17.7-10.5-26.6c-7.9-21.1-15.6-42.3-23.4-63.4
		c-0.3-0.8-0.8-1.5-1.2-2.3c-0.3-1.4-0.6-2.8-1-4.2c-2.2-7-4.6-13.9-6.7-20.9c-2.2-7-3-14.1,0.3-21.1c2.4-5.1,6.9-7.7,11.4-10.4
		c4.7-1.9,9.6-1.7,14.4-1.7C401.8,453.3,413.9,453.3,426,453.2z"/>
	<path class="st6" d="M190.7,421.4c12.3,0,24.6,0,36.8,0c0,13.9-0.1,27.8-0.1,41.7c0.2,43.7,0.4,87.5,0.6,131.2c0,1.3-0.2,2.7,0.4,4
		c-0.9,1.5-2.3,1.1-3.6,1.1c-4,0-8,0-12,0c-0.2,0-0.5-0.1-0.7-0.1c-6.1,0-12.2-1.3-18.4-0.1c-1.6-0.3-1.2-1.7-1.3-2.7
		c-0.2-3-0.3-6-0.3-9c-0.1-18.8-0.1-37.6-0.2-56.4c1.3-1,0.8-2.7,1.3-4c6.3-16,12.5-32,17-48.6c1.6-5.9,1.8-11.8-1.2-17.5
		c-3.8-7.2-10-11-17.7-12.6C191.4,439.3,191.5,430.4,190.7,421.4z"/>
	<path class="st7" d="M375.3,454.9c-4.5,2.7-9,5.3-11.4,10.4c-3.3,7-2.4,14.1-0.3,21.1c2.2,7,4.5,14,6.7,20.9c0.4,1.4,0.7,2.8,1,4.2
		c-13.2,32-26.4,64-39.4,96.1c-1.3,3.2-2.9,0.3-4.1,0.9c-1.4-1.7-3.3-2.7-5.4-3.5c-0.1-8.3-0.1-16.7-0.1-25
		c0-18.8-0.1-37.6,0.1-56.3c0-3-1.3-5.9-0.4-8.9c1.8,0,1.4-1.7,1.8-2.6c4.1-11.9,7.9-24,12-35.9c3.7-10.4,11-17.2,21.6-20.3
		C363.3,454.3,369.3,454.9,375.3,454.9z"/>
	<path class="st5" d="M433.6,503c0-16.6,0-33.2,0-49.8c1.3,0,2.5,0.4,3.8-0.2c2,0.4,4.1,0.3,6.1,0.1c0.1,0.3,0.2,0.6,0.3,0.8
		c0.1-0.3,0.2-0.6,0.3-0.8c5.6,0.2,11.2,0.3,16.8-0.1c0.4,0.3,0.9,0.3,1.3,0c2.4,0.4,4.9,0.3,7.4,0c0.2,0,0.5,0,0.7,0
		c2.7,0.4,5.4-0.1,8-0.1l0.3,0.1l0.3-0.1c3.8,0,7.6-0.1,11.4-0.1c0.2,0.4,0.4,0.4,0.7,0c2.9-0.1,5.8,0.7,8.7,0.2
		c0.4-0.4,0.8,2,1.2,0c4.1,0.4,8.1,0.3,12.2,0.1c0.1,0.3,0.2,0.6,0.3,0.9c0.1-0.3,0.2-0.6,0.3-0.9c1.6,0.8,4.2-1.2,5,1.8
		c0.6,6.8,0.9,13.5-0.5,20.2c-3.1,14.2-13.1,23.7-27.9,26.4c-2,0.4-4,0.5-5.9,0.8c-6.3,0.1-12.6-0.6-18.9,0.6
		C454.8,502.9,444.2,503,433.6,503z"/>
	<path class="st1" d="M433.6,503c10.6,0,21.1-0.1,31.7-0.1c6.2,0,12.4,0,18.6,0.1c14.3,0,28.5,0,42.8,0.1c1.8,0,2.7-0.5,2.5-2.4
		c-0.1-0.9,0-1.8,0-2.7c0-60.4,0-120.7,0-181.1c0-2.2-0.3-4.1,3.1-3.9c2.7,0.1,3.3,0.9,3.3,3.4c-0.1,61.9-0.1,123.8-0.1,185.7
		c0,37.5,0,75,0,112.6c0,3.3-3,5.1-5.8,3.6c-1.3-0.7-0.7-2-0.7-3c0-13.9-0.1-27.8,0-41.8c0-2.9-0.5-3.9-3.7-3.9
		c-30,0.2-59.9,0.1-89.9,0.1c-0.6-1.5-1.2-3.1-1.8-4.6c0-0.7,0-1.4-0.1-2.1c0.7,0.1,1.3,0.2,2,0.2c30.3,0,60.6,0,90.8,0.1
		c2.5,0,2.6-1.1,2.6-3c0-15.9-0.1-31.8,0-47.8c0-2.7-1-3-3.3-3c-26.8,0.1-53.7,0-80.5,0.1c-3.9,0-7.8,0.1-11.7,0.1
		C433.6,507.5,433.6,505.2,433.6,503z"/>
	<path class="st8" d="M264.3,339.8c7.4-5.6,14.8-11.2,22.7-16.1c4,5,7.9,10,12,15c8.8,10.9,17.7,21.8,26.6,32.8
		c7.1,8.8,14.3,17.5,21.2,26.4c2.8,3.6,6.7,6.6,7.8,11.4c-2,1.3-4,2.7-6.1,4c-0.7-1.5-1.8-2.1-3.6-2.1c-4.8,0.2-9.6,0-14.3,0.1
		c-5.3,0.1-9.3-2.2-12.5-6.3c-4.7-6.1-9.5-12.2-14.4-18.2c-10-12.5-20-25.1-30.3-37.4C270.5,346.1,268.5,341.8,264.3,339.8z"/>
	<path class="st9" d="M264.3,339.8c4.2,2,6.2,6.3,9,9.6c10.3,12.3,20.2,24.9,30.3,37.4c4.8,6,9.7,12.1,14.4,18.2
		c3.2,4.1,7.2,6.4,12.5,6.3c4.8-0.1,9.6,0.1,14.3-0.1c1.8-0.1,2.9,0.5,3.6,2.1c0.4,2.3,2.3,1.4,3.5,1.4c12.4,0.1,24.9,0.2,37.3,0.2
		c0,0,0,0,0,0c-1.2,0.1-2.4,0.2-3.6,0.2c-22,0-44-0.1-66-0.1c-13.5,0-26.9,0.1-40.4,0.2c-1.2,0-2.4-0.1-3.6-0.2
		c-4.6-10.8-9.2-21.6-13.7-32.5c-4-9.7-7.8-19.6-11.8-29.3c-1.1-2.6-0.4-3.8,2.1-5.2C256.4,345.6,260.3,342.6,264.3,339.8z"/>
	<path class="st3" d="M354.5,409.3c-1.1-4.8-5-7.8-7.8-11.4c-6.9-8.9-14.1-17.7-21.2-26.4c-8.8-10.9-17.7-21.8-26.6-32.8
		c-4-5-8-10-12-15c3.8-3.9,8.6-6.5,12.9-9.7c4.5-3.3,4.8-3.2,8.4,1.3c10,12.4,19.9,24.8,29.9,37.2c3,3.7,5.9,7.4,9,11
		c1.2,1.4,2.2,3.2,4.5,2.9c1.2,1,1.5,2.4,2.2,3.7c5.3,10,10.5,20,17.2,29.2C366,403.2,360.1,406.1,354.5,409.3z"/>
	<path class="st2" d="M472.3,255.8c-0.6,2.4,1.2,1.8,2.4,1.8c4.8-0.3,9.3,0.3,13.9,2.4c7.1,3.3,10.4,8.5,10.9,16.1
		c0.4,6.1,2,7.8,7.9,8.9c2.8,0.6,4.2,2.3,4.8,4.9c0.3,1.5,0.5,3.1,0.8,4.6c0.5,2.6,2,4.1,4.6,4.5c7.2,1.2,10.6,6.6,8.7,13.4
		c-0.6,2-2.1,1.3-3.3,1.3c-11.6,0.1-23.1,0.1-34.7,0.1c0-1.6,0-3.1-0.1-4.7c0.4,0.1,0.7,0.1,1.1,0.2c2,1.1,4,1.6,6.1-0.2
		c-2.1-0.1-3.9-0.2-5.8-0.3c-0.5-0.3-1-0.6-1.5-0.8c0-3.2,0-6.5,0-9.7c0.3-0.3,0.7-0.7,1-1c2-0.5,4.1-0.4,6.2-0.2
		c0.4,0.5,0.8,0.8,1.5,0.6c-0.1,0.5,0.2,0.7,0.7,0.7c0,0.2,0.1,0.4,0.1,0.6c0.1-0.1,0.2-0.2,0.3-0.2c-0.2-0.1-0.3-0.2-0.5-0.3
		c0-0.4-0.2-0.6-0.7-0.7c-0.2-0.7-0.9-0.7-1.3-1c-0.3-0.2-0.6-0.5-0.9-0.7c0.4-0.8,0.9-1.5,1.2-2.4c0.8-2-0.3-3.4-1.5-4.8
		c-1.3-1.5-3.1-1.6-4.6-1c-1.7,0.7-0.8,2.5-0.9,3.9c-0.1,1.5,0,3.1,0,4.7c-0.1,0.2-0.1,0.3-0.2,0.5c-0.2,0-0.4,0-0.5,0
		c0-4-0.1-8,0-12c0.1-2.9-0.1-5.1-3.5-6.1c-1.6-0.4-2.9-2-4.2-3.2c-3.7-3.1-6.1-7.4-9.4-11.2c-3.4,7.5-9.6,10.9-16.7,13
		c-2.4,0.7-5.6,0.6-7.1,2.2c-1.7,1.8-0.4,5.1-0.5,7.7c-0.1,1.2-0.1,2.1-1.7,2.3c-2.5,0.4-4.3,1.9-4.3,4.6c0,2.7,1.8,4.2,4.3,4.7
		c1.7,0.4,2.8,1.3,3,3.1c0.3,2.1,0.5,4.2,0.8,6.2c-2,0.9-4.2,0.7-6.8,0.7c2.9,2.1,5.1,1,7.4-0.2c0.9,3.5,4.2,4.3,6.7,5.9
		c-7.3,0.7-14.6,1.1-21.9,0.3c-3.2-0.4-5-1.9-5.2-4.9c-0.4-5-0.5-9.8,4.3-13.2c2-1.4,1.8-3.4,1.2-5.4c-1-3.1-0.1-5.5,2.7-7
		c2.9-1.6,3.9-4.3,4.3-7.4c0.5-3.6,0.8-7.3,1.7-10.8c2.6-10.6,15.6-15.8,25.1-10.2c0.3,0.2,0.6,0.3,0.9,0.4c0.7-1-0.2-2.2,0.5-3
		c1.6-0.1-1.1,4.4,2.4,2C472.2,255.6,472.3,255.7,472.3,255.8z M498.4,300c0.6,1.7,0.5,3.4,0.7,5.1C499.6,303.3,500,301.5,498.4,300
		z"/>
	<path class="st10" d="M448.8,308.4c-0.3-2.1-0.5-4.2-0.8-6.2c-0.2-1.8-1.3-2.7-3-3.1c-2.5-0.6-4.3-2-4.3-4.7c0-2.7,1.8-4.2,4.3-4.6
		c1.6-0.2,1.6-1.1,1.7-2.3c0.1-2.6-1.1-5.9,0.5-7.7c1.5-1.6,4.7-1.5,7.1-2.2c7.1-2.1,13.3-5.5,16.7-13c3.3,3.8,5.7,8.1,9.4,11.2
		c1.4,1.1,2.6,2.7,4.2,3.2c3.4,1,3.6,3.2,3.5,6.1c-0.2,4,0,8,0,12c-0.9,0.7-1.4,1.6-1.3,2.8c-0.3,0.2-0.7,0.4-1,0.6
		c0.1,0.1,0.2,0.2,0.4,0.4c0.2-0.3,0.4-0.7,0.6-1c0.4-0.5,0.9-0.9,1.3-1.4c0,3.2,0,6.5,0,9.7c0,0.4,0,0.7,0,1.1c0,1.6,0,3.1,0.1,4.7
		c0,3.3-0.1,6.6-0.1,9.9c-10,0-19.9,0-29.9,0c0-1.6,0-3.2,0-4.7c3.9-0.4,7.4-1.9,11.9-3.1c-4.6-0.2-8.4,0.3-12-0.8
		c-0.7-0.1-1.4-0.2-2.1-0.2c-2.5-1.7-5.8-2.4-6.7-5.9C449.2,308.8,449,308.6,448.8,308.4z M478.7,279.3c-2.5-1.4-5-1.5-7.3,0.6
		C473.8,279.4,476.3,279.8,478.7,279.3z M451.4,280.7c2-0.5,4.1-0.2,6.7-0.6C455.2,278.5,453.2,278.8,451.4,280.7z M485.9,303.3
		c-0.1-0.2-0.1-0.4-0.2-0.5c0,0-0.3,0-0.3,0c0,0.2,0,0.4-0.1,0.6C485.5,303.3,485.7,303.3,485.9,303.3z M486.3,306.1
		c0.1-0.2,0.2-0.3,0.2-0.5c0,0-0.2-0.2-0.2-0.2c-0.2,0.1-0.3,0.2-0.4,0.4C486,305.9,486.2,306,486.3,306.1z"/>
	<path class="st6" d="M227.7,415.3c-12.4,0-24.8,0-37.2,0c0.1-8.3-0.6-16.6-1.5-24.9c-0.5-4.5-0.4-9.1-3-13.1c0.2-1.1,1.2-1.3,2-1.6
		c8.5-3.9,16.9-7.9,25.4-11.7c2.3-1,4.3-2,4.4-5c0.1-1.5,0.9-3,2.3-3.8c2.4-0.2,4.7,0.4,7,0.8c0.1,19.1,0.2,38.3,0.3,57.4
		C227.3,414,227.6,414.6,227.7,415.3z"/>
	<path class="st1" d="M60.4,504.9c0-2.2-0.1-4.5-0.1-6.7c7.6-0.1,15.2-0.4,22.9-0.1c11.3,0.4,22.7,0.1,34,0.2c7.1,0,6.8,0,6.8,6.9
		c-0.1,20.2,0,40.5,0,60.7c0,5.3,0,10.6,0,15.9c0,1.1,0,2.2,0,3.2c0,0.4,0,0.9,0,1.3c0,0.3,0,0.6,0,0.8c0,0.4,0,0.9,0,1.3
		c0,3.3,0,6.6,0,9.9c0,4.7,0,9.4,0,14.1c-0.1,0.2-0.1,0.4,0,0.6c-2.3,1.1-4.6,1.1-6.8,0c0.1-0.2,0.1-0.4,0-0.6c0-4.7,0-9.4,0-14.1
		c0-3.3,0-6.7,0-10c0-0.4,0-0.8,0-1.2c0-0.5,0-1,0-1.5c0-0.4,0-0.8,0-1.2c0-1,0-2,0.1-3c0-5.2,0-10.5-0.1-15.7c0-11,0.1-22,0.1-33
		c0-0.6-0.3-1.2-0.5-1.9c1.2-8.2,0.3-16.4,0.5-24.6c0.1-2-1.5-1.6-2.6-1.6C96.6,504.8,78.5,504.9,60.4,504.9z"/>
	<path class="st0" d="M227,355.9c-2.3-0.4-4.6-1-7-0.8c-2-2.4-4.2-4.4-7.6-3.9c-1.4,0.2-2.8,0.5-4.3,0.7c0-2.8-0.1-5.5-0.1-8.3
		c-0.2-8.6-0.3-17.3-0.5-25.9c1.1-1.6,0.4-3.4,0.5-5.1c0.1-1,0.1-1.9,1.3-2.3c6.5-1.9,12.6-5.1,19.3-6.6c0.1,16.8,0.3,33.6,0.5,50.4
		C229.2,355.9,228.6,356.3,227,355.9z"/>
	<path class="st8" d="M371.3,399.4c-6.7-9.1-12-19.2-17.2-29.2c-0.7-1.3-1-2.7-2.2-3.7c-0.8-4.2-3.2-7.7-4.9-11.5
		c-1.1-2.6-2-5.3-3.3-7.8c-1.3-2.4-1.2-4.3,0.8-6.1c2.8,0.1,4.7-2.3,7.3-2.7c0.5,2.8,1.9,5.2,3.2,7.7c0.5,1,1,1.7,2.2,1.7l0,0
		c-1.5,1.4-1.3,2.8,0,4.3c9.7,12,19.5,24,29.1,36c0.7,0.8,1.4,1.4,2.3,1.8c-0.2,1.3,0.5,2.8-0.6,4c0-2-0.4-2.9-2.6-1.7
		C380.7,394.7,376,397,371.3,399.4z"/>
	<path class="st11" d="M193.8,599.1c6.1-1.2,12.3,0.1,18.4,0.1c0.1,0.3,0.2,0.6,0.3,0.9c0.1-0.3,0.3-0.5,0.4-0.8c4,0,8,0.1,12,0
		c1.3,0,2.7,0.4,3.6-1.1c6.9,2.8,13.7,5.9,19.6,10.6c-0.4,0.1-0.9,0.2-1.3,0.2c-14.9,0.4-29.7-0.5-44.6-0.6c-2.1,0-1.8-1.6-2.3-3
		c-0.6,2.6-0.6,2.6-2.9,3.4c17.1,1,34.4,1.1,51.7,0.9c0.9,1.4,0.9,1.5-0.1,1.7c-1.5,0.3-3.1,0.3-4.6,0.3
		c-18.1,0.3-36.2-0.4-54.3-0.7c-1.5-0.9-2.9-1.9-4.5-2.7c-5.3-2.7-10.7-5.3-16-7.9c-0.6-0.3-1.5-0.3-1.4-1.1
		c0.1-1.2,1.2-0.5,1.8-0.7c0.4-0.1,0.8,0.1,1.2,0.2c1.4,0.2,2.7,0.3,4.1-0.1c0.4,0.1,0.8,0.1,1.1,0.2c4.9,3,10.2,5.2,15.1,8.8
		C192,604.7,192.9,601.9,193.8,599.1z M208.5,601.9c-0.4,1.6-1.6,3.3-0.7,5.4C208.8,605.6,208.9,603.9,208.5,601.9z M210.5,601.1
		c0.2-0.1,0.4-0.2,0.5-0.3c-0.2-0.1-0.3-0.3-0.5-0.3c-0.2,0-0.4,0.2-0.5,0.2C210.1,600.9,210.3,601,210.5,601.1z"/>
	<path class="st12" d="M117.1,598.5c0,4.7,0,9.4,0,14.1c-0.8-0.1-1.8,0.3-2.4-0.6c-0.2-0.4-0.2-3.3-1-0.1c-0.2,0.9-1.2,0.7-2,0.7
		c-1.5,0-3,0-4.5,0c0,0.2,0,0.4,0,0.6c3.3,0,6.6,0,9.9,0c2.3,1.1,4.6,1.1,6.8,0c9.9,0,19.9,0,29.8,0c0-0.2,0-0.4,0-0.6
		c-9.9,0-19.8,0-29.8,0c0-4.7,0-9.4,0-14.1c2.2,0,4.4,0,6.6,0c1.8,0,3.6,2.3,5,1.3c1.4-1-0.2-3.6,0.9-5.2c2.4-0.3,2-3,3.7-3.9
		c1.4,0,2.1,0.6,1.4,2c-0.7,1.3-1.5,2.7-2.9,3.4c-1.3,0.6-1.6,1.3-0.7,2.4c-0.4,0.2-1.2-0.1-1,0.8c0.1,0.5,0.6,0.4,1,0.4l-0.2,0.1
		c-0.6,1.8,0.9,2,1.9,2.5c3.7,1.9,7.5,3.7,11.2,5.7c2.7,1.5,5.3,3.2,7.8,4.9c1.5,1,1.8,2.2-0.5,2.8c-15.2,0.7-30.4-0.4-45.6-0.5
		c-3.2,0-6.5-0.1-9.7,0c-2.2,0-2.9-0.8-2-2.8c0.3-0.6,0.4-1.3,0.6-1.9c1.1-3.9,1.4-8.6,4.1-11.1
		C108.4,596.9,113.2,598.9,117.1,598.5z M113.5,608.4c0,0.1-0.1,0.2-0.1,0.2c0.1,0,0.2,0,0.3,0c0-0.1,0-0.2-0.1-0.2
		C113.6,608.3,113.5,608.4,113.5,608.4z"/>
	<path class="st10" d="M351.8,338.4c-2.6,0.4-4.5,2.8-7.3,2.7c-2-5.5-4-11-5.9-16.6c-1.4-4.2-0.8-5.1,3.6-5.7c0.7-0.1,0.8-0.5,1-1.1
		c0.3-0.9,1.2-2.1,1.7-1.8c3.4,2,4.9-2.1,7.6-2.3c0,0.1,0.1,0.2,0.1,0.2c0,0,0.1,0,0.2,0c-0.1-0.1-0.2-0.2-0.3-0.2
		c0.1-3.6-2.2-6.7-2.6-10.2c-0.1-0.8-1.1-1.8,0.1-2.4c1-0.5,1.6,0.5,2.2,1.1c4.5,5.3,7.9,11.5,11.4,17.5c1.8,3,3.4,6.2,5.1,9.3
		c-3.4,2.4-7.2,4-10.8,6.1c-0.2,0.2-0.5,0.4-0.7,0.5C355.2,336.3,353.4,337.2,351.8,338.4z"/>
	<path class="st10" d="M251,288.4c-0.8-7.6-1.3-15.2-1.4-22.8c4.8,0.5,9.3,0.1,12.3-4.4c0.5-0.8,1.5-1.3,2.3-1.8
		c0.9-0.5,1.9-1.6,3-0.7c1,0.9-0.2,1.8-0.5,2.7c-0.1,0.2-0.2,0.4-0.3,0.6c-0.6,2-3.1,4-1.8,5.7c1.3,1.7,4.2,0.7,6.3,0.5
		c2.1-0.2,4.2-0.5,6.3-0.5c1.7,0,3.8-0.4,3.9,2.4c0,0.1,0,0.3,0.1,0.3c6.9,2-0.3,4.6,0.3,6.9c-0.7,0.7-0.8,1.6-0.6,2.6
		C270.9,282.6,261,285.5,251,288.4z"/>
	<path class="st0" d="M158.2,615.7c2.2-0.6,2-1.8,0.5-2.8c-2.5-1.8-5.1-3.5-7.8-4.9c-3.7-2-7.5-3.8-11.2-5.7c-1-0.5-2.5-0.7-1.9-2.5
		c1.2-1,2.6-1.2,4.2-1.2c7.5,0,15-0.1,22.5-0.1c0.8,0,1.6,0.3,2.2-0.6c0.2,0,0.4,0,0.7,0c1.3,0.5,1.2-4.8,3.3-0.7l0.2,0.2
		c0,0.6-0.1,1.2-0.1,1.8c-0.4-0.1-0.9-0.3-1.2-0.2c-0.6,0.2-1.7-0.5-1.8,0.7c-0.1,0.8,0.8,0.8,1.4,1.1c5.4,2.6,10.7,5.2,16,7.9
		c1.6,0.8,3,1.8,4.5,2.7c1.1,1.1,3.6,1.7,3,3.5c-0.4,1.2-2.8,0.6-4.3,0.6C178.2,615.5,168.2,615.6,158.2,615.7z"/>
	<path class="st7" d="M314.9,538.9c0,13.8,0.1,27.5,0.1,41.3c0,6.5,0,13.1,0,19.6c-0.5,0-1.2,0.1-1.6-0.1c-2.7-1.5-5.5-3-8.1-4.5
		c-1.2-0.7-2.4-0.8-3.5-0.3c-1.4,0.6,0.1,1.7-0.1,2.6c-0.2,0.9,0.4,1.9-0.8,2.9c-0.7-2,0.1-4.2-1.1-5.8c0.2-0.6,0.9-1.4,0.3-1.8
		c-2.2-1.2-2.1-3.1-1.8-5c0.2-1.4-2.2-3.9,1.6-3.9c0.2,0,0.6-1.1,0.8-1.7C305.4,567.6,310.1,553.3,314.9,538.9z M298.5,584.3
		c-1.2,1-0.5,1.9,0.1,2.8C299.3,586.1,299.7,585.2,298.5,584.3z"/>
	<path class="st0" d="M406.5,603.9c3.1-0.1,6.2-0.2,9.3-0.2c0,1.9,0,3.7,0.2,5.6c0.3,2.7-0.7,5.4,0,8.1c-9.4,0-18.8,0-28.2,0
		c0,0.2,0,0.3,0,0.5c9.4,0,18.8,0,28.2,0c2.2,1.1,4.5,1,6.7,0c3.4,0,6.8,0,10.2,0c0-0.2,0-0.3,0-0.5c-3.4,0-6.8,0-10.1,0
		c0-4.6,0-9.1,0-13.7c1.1,0,2.2,0,3.3,0c0.3,3-0.2,5.9,0.6,8.9c0.8,3.1,3,1.6,4.6,1.8c1.7,0.2,2.3-1,2.3-2.6c0-2.8,0.1-5.6,0.1-8.3
		c0.3,0.1,0.6,0.2,1,0.3c1.5,4.7,2.9,9.4,4.4,14.1c0.4,1.2,0.1,1.7-1.1,1.7c-0.3,0-0.7,0-1,0c-16.9,0.1-33.8,1-50.7,0.6
		c-2.1-0.1-4.1-0.3-6.5-0.5c1.4-2.2,3-3.5,4.9-4.6c6.3-3.8,12.8-7,19.5-9.9C404.9,604.9,405.7,604.5,406.5,603.9z"/>
	<path class="st13" d="M299.8,594.4c1.2,1.7,0.3,3.8,1.1,5.8c1.2-1,0.6-2,0.8-2.9c0.2-0.9-1.3-2,0.1-2.6c1.1-0.4,2.3-0.4,3.5,0.3
		c2.7,1.6,5.4,3.1,8.1,4.5c0.4,0.2,1.1,0.1,1.6,0.1c0,4.3,0,8.5,0,12.8c-0.6,0.4-1.7,0.5-1.6,1.4c0.1,0.9,1,0.5,1.6,0.6
		c0.7,0,1.5-0.1,2,0.7c0.7,0.4,1.3,0.9,2,1.3c0.6,0,1.3,0,1.9,0c1.7,1.5,3.7,2,5.9,2c0.1,0.7,0.2,1.5-0.4,2.1c-0.5,0-1,0-1.5,0
		c-15.7-5.7-31.1-12-46.4-18.6c-2-0.9-4-1.9-6-2.9c-0.6-0.3-1.6-0.8-0.3-1.6c0.8,0.1,1.7,0.3,2.5,0.4c0.2,0.2,0.5,0.3,0.7,0.5
		c0,0,0.1-0.2,0.2-0.2c-0.3-0.1-0.6-0.2-0.9-0.3c0-0.4,0-0.8,0-1.2c5.5-1.5,11.2-1.6,16.8-1.9c0.8,1.6,0.2,3.7,1.7,5.5
		c0.5-2.2-0.8-3.8-0.5-5.6C295.2,594.6,297.5,594.5,299.8,594.4z M290.2,599.1c-1.4,0.6-0.8,2.2-1.6,3.1c-0.3,0.3-1.7,0.2-0.5,1.1
		c0.6,0.4,1.2,0.4,1.7-0.4C290.4,601.7,290.5,600.5,290.2,599.1z M304.3,610.4c0.2-0.1,0.4-0.1,0.5-0.3c0.1-0.1-0.1-0.3-0.1-0.5
		c-0.2,0.1-0.4,0.1-0.5,0.3C304.1,610,304.3,610.2,304.3,610.4z M298.9,607.2c-0.2-0.1-0.4-0.2-0.5-0.2c-0.1,0.1-0.2,0.3-0.3,0.5
		c0.2,0.1,0.4,0.2,0.5,0.2C298.7,607.6,298.8,607.3,298.9,607.2z M292.8,604.5c-0.2-0.1-0.3-0.2-0.5-0.2c-0.1,0-0.2,0.2-0.2,0.2
		c0.1,0.2,0.2,0.3,0.3,0.4C292.6,604.8,292.7,604.7,292.8,604.5z M281.7,600.4c0.1-0.1,0.1-0.1,0.2-0.2c-0.1-0.1-0.1-0.1-0.2-0.2
		c-0.1,0.1-0.2,0.2-0.3,0.3C281.5,600.3,281.6,600.3,281.7,600.4z M279.9,599.5c0-0.1-0.1-0.2-0.1-0.2c-0.1,0-0.2,0-0.3,0
		c0.1,0.1,0.1,0.2,0.2,0.3C279.7,599.6,279.8,599.6,279.9,599.5z M277.9,598.9c0-0.1-0.1-0.2-0.1-0.2c-0.1,0-0.2,0-0.3,0
		c0.1,0.1,0.1,0.2,0.2,0.3C277.7,599,277.8,598.9,277.9,598.9z M309.3,612.3c0-0.1,0-0.2,0-0.2c-0.1,0-0.2,0-0.2-0.1
		c0,0.1,0,0.2,0.1,0.4C309.1,612.4,309.2,612.3,309.3,612.3z"/>
	<path class="st0" d="M280.9,279.7c-0.3-1-0.1-1.8,0.6-2.6c15.8,0,31.6,0,47.4,0.1c34.1,0.1,68.1,0.1,102.2,0.9
		c1.2,0,2.7-0.6,3.6,0.8c-37.6,1-75.2,0.7-112.8,0.9c-0.9,0-1.8,0.1-2.7,0.1c-0.5,0-1,0-1.5,0C305.4,279.8,293.2,279.8,280.9,279.7z
		"/>
	<path class="st1" d="M60.4,565.1c0-2.2,0-4.4,0-6.6c16.3,0,32.6,0.1,48.9,0.1c-0.5,2.2-1,4.4-1.5,6.6
		C92,565.1,76.2,565.1,60.4,565.1z"/>
	<path class="st5" d="M434.5,603.9c-0.3-0.1-0.6-0.2-1-0.3c0-12.8,0-25.6,0.1-38.4c0.6,1.5,1.2,3.1,1.8,4.6
		c3.1,10.2,6.1,20.4,9.4,30.5c1,3,0.2,3.7-2.7,3.5C439.6,603.6,437.1,603.8,434.5,603.9z"/>
	<path class="st1" d="M462,186c-2-0.1-4.5-0.2-6.5,1.4c-0.8,0.7-1.5,0.4-1.9-0.3c-0.5-0.9,0.3-1.2,0.8-1.5c2.2-1.6,4.7-1.9,7.3-1.7
		c1.8,0.1,3.6,0.2,5.3-0.3c3-1,4.7-2.9,4.8-6.1c0-1.9-0.2-3.8-0.4-5.7c-0.5-6.1,3.2-10.3,9.4-10.4c1.7,0,3.3,0.1,5,0
		c4.1-0.2,6.7-3,6.7-7.1c0-1.6-0.2-3.1-0.4-4.7c-0.7-6.2,3.1-10.5,9.4-10.8c3.2-0.1,6.5,0.7,9.4-1.4c0.6-0.5,1.3-0.1,1.7,0.5
		c0.4,0.7-0.3,1-0.7,1.3c-1.6,1.3-3.5,1.8-5.6,1.9c-1.7,0-3.3-0.1-5,0c-4.5,0.2-7.2,3-7.1,7.5c0,1.4,0.4,2.9,0.5,4.3
		c0.6,6.1-3,10.3-9.1,10.7c-1.5,0.1-3.1-0.1-4.7,0c-5.2,0.1-7.9,3.3-7.4,8.5c0,0.3,0.1,0.7,0.2,1C475,182.2,471.6,186.1,462,186z"/>
	<path class="st0" d="M107.8,565.2c0.5-2.2,1-4.4,1.5-6.6c2.5-9.2,5-18.4,7.4-27.6c0.2,0.6,0.5,1.2,0.5,1.9c0,11,0,22-0.1,33
		c-2.1,0.1-4.1-0.3-6.2,0.3C109.9,565.8,108.4,567,107.8,565.2z"/>
	<path class="st2" d="M513,214.1c-2.2,0.4-3-0.6-2.7-2.6c0.5-3.4-0.9-4.6-4.2-4c-1.9,0.3-3.2,0-3.2-2.5c0-2,0.9-2.6,2.6-2.3
		c3.2,0.4,4.9-0.6,4.1-4.2c-0.4-2.2,0.3-3.1,2.8-3.2c2.5-0.1,2.8,1.3,2.6,3.1c-0.4,3.3,1.1,4,4,3.7c1.5-0.2,3.3-0.7,3.4,2.1
		c0.1,2.8-1.4,2.7-3.3,2.7c-2.8-0.1-4,1.1-3.5,4C516,213,515.7,214.7,513,214.1z"/>
	<path class="st13" d="M459.1,102.6c-2.1,0.7-2.6-0.5-2.4-2.2c0.5-3.4-1-4.5-4.3-4c-1.1,0.2-2.9,1-3.1-1.6c-0.1-2.2,0.2-3.4,2.7-3.1
		c3.3,0.5,4.8-0.8,4-4.2c-0.6-2.4,0.9-2.6,2.7-2.8c2.4-0.3,2.8,0.9,2.5,2.7c-0.5,3.4,1.1,4.2,4.1,3.6c2-0.4,3.2,0,3.3,2.6
		c0.1,2.7-1.7,2.2-3.1,2.1c-3.2-0.3-4.5,0.8-3.7,4.1C462.6,102.3,461.3,103,459.1,102.6z"/>
	<path class="st13" d="M228.7,303.7c-6.7,1.5-12.7,4.7-19.3,6.6c-1.3,0.4-1.3,1.3-1.3,2.3c-0.2,1.7,0.5,3.5-0.5,5.1
		c-0.1-2-0.2-4-0.2-6c-0.4-2,1.1-4.4-1.2-6c4.5-2.8,9.7-3.6,14.6-5.4c2.5-0.9,4.9-2.2,7.7-1.9C228.1,300.2,228.5,302,228.7,303.7z"
		/>
	<path class="st5" d="M530.9,13.6c-0.5,0.8-0.9,1.3-1.3,1.8c-4.2,5.7-8.4,11.4-12.5,17.2c-1.2,1.7-1.9,1.5-3.4,0.4
		c-1.4-1-1.6-1.7-0.5-3.1c4.3-5.8,8.5-11.6,12.8-17.4c0.5-0.6,0.8-1.9,2-1.1C529,12,529.9,12.8,530.9,13.6z"/>
	<path class="st11" d="M111,566.2c2-0.6,4.1-0.2,6.2-0.3c0,5.2,0,10.5,0.1,15.7c-2.7-0.7-6.7,0.9-8-1.2c-1.1-1.8,0.8-5.2,1.1-8
		C110.5,570.3,111.3,568.3,111,566.2z"/>
	<path class="st0" d="M327,618.6c-2.2,0-4.2-0.5-5.9-2c2.3-2.3,1.5-5.3,1.2-7.9c-0.1-1.3,0.1-2.4,0.3-3.5c2.1,0.7,3.9,1.7,5.4,3.5
		C327.8,611.9,327.7,615.3,327,618.6z"/>
	<path class="st7" d="M248.7,609.8c-17.3,0.2-34.6,0.1-51.7-0.9c2.2-0.7,2.2-0.7,2.9-3.4c0.5,1.4,0.2,3,2.3,3
		c14.9,0.1,29.7,1,44.6,0.6c0.4,0,0.9-0.2,1.3-0.2C248.2,609.2,248.4,609.5,248.7,609.8z"/>
	<path class="st5" d="M458.2,315.1c3.6,1.1,7.4,0.7,12,0.8c-4.5,1.2-8.1,2.8-11.9,3.1C458.2,317.7,458.2,316.4,458.2,315.1z"/>
	<path class="st0" d="M319,287.7c0.5,0.5,1.5,0.5,1.4,1.7c-1.9-0.7-4-1.2-4.6,1.4c-0.7,2.9,1.4,3.7,3.9,3.9c-2.4,1-4.3,0.3-5-2
		c-0.9-3,1-4.5,3.7-5.2C318.5,287.6,318.8,287.6,319,287.7z"/>
	<path class="st5" d="M117.1,587.2c0,0.4,0,0.8,0,1.2c-2.7-0.1-5.4-0.1-8.2-0.2c-0.7,0-1.8,0.2-1.6-1c0.2-1.1,1.2-0.6,1.9-0.7
		C111.9,586.8,114.5,587,117.1,587.2z"/>
	<path class="st5" d="M117.1,584.6c0,0.4,0,0.8,0,1.2c-2.7,0-5.3,0.1-8,0.1c-0.4-0.2-1-0.2-1-0.5c-0.2-1,0.6-1,1.2-0.9
		C111.9,584.5,114.5,584.5,117.1,584.6z"/>
	<path class="st10" d="M484,503c-6.2,0-12.4,0-18.6-0.1c6.3-1.3,12.6-0.5,18.9-0.6C484.1,502.5,484.1,502.7,484,503z"/>
	<path class="st1" d="M319,287.7c-0.2,0-0.4-0.1-0.6-0.1c-1.2-2.5-0.3-5.1-0.7-7.6c0.5,0,1,0,1.5,0C319.1,282.5,319,285.1,319,287.7
		z"/>
	<path class="st10" d="M109.2,585.9c2.7,0,5.3-0.1,8-0.1c0,0.5,0,1,0,1.5c-2.6-0.2-5.2-0.4-7.8-0.7
		C109.3,586.3,109.2,586.1,109.2,585.9z"/>
	<path class="st7" d="M292.9,594.6c-0.2,1.8,1.1,3.3,0.5,5.6c-1.4-1.8-0.9-3.9-1.7-5.5C292.2,594.7,292.5,594.6,292.9,594.6z"/>
	<path class="st0" d="M275,596.6c0,0.4,0,0.8,0,1.2c0,0-0.1,0.1-0.1,0.1c-0.8-0.1-1.7-0.3-2.5-0.4C273.2,597,274,596.4,275,596.6z"
		/>
	<path class="st0" d="M325.1,620.6c0.5,0,1,0,1.5,0C326,621.7,325.6,621.1,325.1,620.6z"/>
	<path class="st2" d="M472.1,255.5c0.2-0.2,0.5-0.4,0.7-0.6l0.1,0.1c-0.2,0.3-0.4,0.5-0.5,0.8C472.3,255.7,472.2,255.6,472.1,255.5z
		"/>
	<path class="st2" d="M472.8,254.9c0.1-0.1,0.2-0.3,0.3-0.4C473.5,254.9,473.1,254.9,472.8,254.9C472.9,255,472.8,254.9,472.8,254.9
		z"/>
	<path class="st14" d="M10.3,390.7c-2.5,0.1-2-1.8-2.1-3.3c-1.1-15.2-0.6-30.3,2-45.4c0.1-0.5,0.1-1.1,0.1-1.7
		c1.6-4.7,2.7-9.6,5.2-13.9c2.5-4.4,6.2-7.3,10.6-9.6c6.8-3.5,13.8-6.6,20.7-9.7c0.1,0.7,0.5,1.2,1.2,1.5c7.1,3,14.1,6.1,21.2,8.8
		c4.1,1.6,8.2-1.4,8.5-5.8c0.1-1.5,0.2-3.1,0.2-4.7c5.6,4.5,11.2,9.1,17,13.4c3.9,2.8,6,6.6,7.9,10.8c3.5,7.6,7.3,15.2,10.9,22.7
		c0.2,1,0.6,2,1.3,2.7c2.2,3.9,2.2,7.8,0.1,11.6c-1.2,3.2-2.4,6.3-3.6,9.5c-1.1-0.1-2.2-0.1-3.3-0.2c-6.9-0.5-13.9-1-20.8-1.7
		c-3.1-0.3-2.9,2.1-3.5,3.8c-0.5,1.4-0.5,3,1.7,3c0.2,1.3,0.5,2.5,0.7,3.8c-1.8,0.4-2.6,1.8-2.6,3.4c0,1.9-1.1,2.4-2.6,2.7
		c-10.7,2.2-21.5,4.5-32.2,6.7c-7.2,1.5-7.4,1.4-7.3-6c0-2.3-0.7-2.8-2.9-2.8c-9.3,0.1-18.7,0.1-28,0.1
		C10.7,390.6,10.5,390.6,10.3,390.7z"/>
	<path class="st11" d="M111.7,377.7c1.2-3.2,2.4-6.3,3.6-9.5c6.9-1.2,13.9-2.5,20.6-4.3c8.7-1.4,17.2-3,25.7-5.3
		c7.4-0.8,14.6-2.7,21.9-4.4c2.7-0.5,5.4-0.7,7.9-1.7c0.2,0,0.4-0.1,0.7-0.1c1.8,0.2,2.8-0.9,3.8-2.2c1.3-1.7,2.8-3.4,4.2-5
		c0.3-0.4,1-0.7,1.4-0.6c0.8,0.2,0.7,1.1,0.6,1.6c-0.3,1.7-0.9,3.4-1.2,5.1c-0.3,1.5-0.2,2.7,1.9,2.1c1.8-0.6,3.6-1,5.4-1.4
		c1.4-0.2,2.8-0.5,4.3-0.7c3.5-0.5,5.6,1.5,7.6,3.9c-1.5,0.8-2.3,2.3-2.3,3.8c-0.1,3-2.1,3.9-4.4,5c-8.5,3.8-16.9,7.8-25.4,11.7
		c-0.8,0.4-1.7,0.6-2,1.6c-0.2,0.1-0.3,0.1-0.5,0c-0.8,0.1-1.6,0.1-2.2,0.4c-15.8,7-31.6,14-47.4,21c-0.3,0.2-0.5,0.3-0.8,0.5
		c-4.6,1.9-9.1,3.9-13.7,5.8c-3.3,1.4-6.6,2.6-10.2,2.4c0-1.1,0.1-2.2,0.1-3.3c0.4-0.8,0.8-1.5-0.1-2.6c-6.7,3.7-13.9,6.3-20.4,10.5
		c-2.1,1.1-4.9,0.7-6.3,3.1c-9,0.1-18-0.2-27-0.1c-10.6,0-21.1,0.2-31.7,0.3c-1.8,0-3.6,0.2-5.3,0c-2.6-0.3-3.2,0.8-3.2,3.2
		c0,2.3,0.7,3,3.1,3c9.3-0.1,18.7-0.1,28,0c5,0,4.5-0.6,4.5,4.4c0,0.8-0.1,1.6-0.1,2.3c-2.3,0-4.2,1.3-6.2,2.1
		c-8.5,3.5-16.9,7.4-26.5,5.2c-5.2-3-7.4-7.9-7.9-13.6c-0.9-10.4-0.2-20.9-1.4-31.2c9.3,0,18.7,0,28-0.1c2.1,0,2.9,0.5,2.9,2.8
		c0,7.3,0.1,7.4,7.3,6c10.7-2.2,21.5-4.5,32.2-6.7c1.5-0.3,2.6-0.8,2.6-2.7c0-1.6,0.8-3,2.6-3.4c8.2-0.8,16.5-2.1,24.7-0.5
		c2.3,0.5,2.9-0.2,3-2.2c0-0.8,0-1.5,0-2.3c1.4-0.2,1.8-1.1,1.6-2.3c-0.2-1.4-1.3-1.2-2.2-1.3C113,377.8,112.3,377.8,111.7,377.7z"
		/>
	<path class="st3" d="M94.5,222.1c0-3.9-0.1-7.8,0-11.7c0.1-2.4-0.8-3-3.1-3c-11.7,0.1-23.4-0.1-35.1,0.1
		c-10,0.2-17.2-6.5-18.5-15.6c-0.8-6-0.7-12.3,0-18.3c1-8.9,9.1-15.5,18.5-15.5c16-0.1,32.1-0.1,48.1,0c10.9,0.1,18.9,8.2,18.8,19.1
		c-0.1,5.6,0.9,11.4-0.7,16.9c-1.1,4.1-3,8.1-7.1,10c-4.3,2.1-7.5,5.5-10.7,8.8c-3.2,3.2-6.3,6.5-9.4,9.7
		C95,222.5,94.8,222.3,94.5,222.1z M81.1,174.7c-9.4,0-18.9,0-28.3,0c-1.3,0-3.2-0.6-3,1.9c0.1,2.2,1.9,1.5,3,1.5
		c18.7,0,37.3,0,56,0c1.2,0,2.9,0.7,3-1.5c0.1-2.4-1.7-1.9-3-1.9C99.6,174.7,90.4,174.7,81.1,174.7z M65.1,187.4c4.2,0,8.4,0,12.7,0
		c1.4,0,2.7,0.2,2.7-1.9c0-2-1.1-2.1-2.6-2.1c-8.6,0-17.1,0-25.7,0c-1.5,0-2.6,0.1-2.6,2.1c0,2.1,1.4,1.9,2.7,1.9
		C56.7,187.4,60.9,187.4,65.1,187.4z"/>
	<path class="st11" d="M78.1,307c-0.1,1.6-0.1,3.1-0.2,4.7c-0.3,4.4-4.3,7.4-8.5,5.8c-7.1-2.8-14.1-5.9-21.2-8.8
		c-0.7-0.3-1.1-0.8-1.2-1.5c0-9.4,0-18.8-0.1-28.2c0-1.4-0.4-2.8-0.6-4.3c0-2.2-0.1-4.4,0-6.6c0.1-1.9-0.7-2.6-2.5-2.4
		c-3.6-3.2-3.7-4.9-0.2-8.7c1.3,0.1,2-0.3,2.1-1.8c0.3-2.8,0.8-5.5,1.2-8.2c0.7-5.4,1.3-6,6.9-6.1c8.6-0.1,17,1.5,25.5,2.4
		c2,0.2,4.4-0.3,5.8,0.7c1.6,1.1,0.2,3.8,0.8,5.7c0.1,0.2,0.2,0.4,0.3,0.6c0.4,1.6-0.6,3-0.5,4.6c0.1,2.6-0.8,5.5,3.2,6.2
		c1.8,0.3,2.3,2.3,2.1,4.1c-0.2,2-1.4,3.5-3.3,3.7c-2.4,0.3-2.8,1.6-2.8,3.6c0,1.9-0.4,3.8-0.5,5.6c-0.1,3-1.7,4.9-4.2,6.3
		c-0.9,0.5-2.1,0.8-2.4,2.1c-3.4,0.7-6.7,1.4-10.1,2.2c3.4-0.1,6.6,1.2,9.9,1.1C78,295.5,78,301.3,78.1,307z M71.4,272.5
		c-3.7-1.4-7.1-2.8-10.5-4c-0.6-0.2-1.4-1.1-2-0.2c-0.5,0.7-0.1,1.5,0.1,2.2C60.4,274.6,67.3,275.8,71.4,272.5z M59.8,249.6
		c-0.5,0.1-1.4,0.2-2.2,0.5c-1,0.3-2.7,0.6-2.4,1.8c0.3,1.5,1.8,0.5,2.8,0.5c1.1,0,2.2,0,3.3-0.1c1-0.1,2.7,0.6,2.8-0.9
		c0.1-1.2-1.6-1.3-2.6-1.6C61.1,249.6,60.6,249.7,59.8,249.6z M75.2,251.1c2.6,1.3,5.2,1.1,7.7,1.7c0.4,0.1,1-0.1,1.2-0.3
		c0.4-0.5-0.1-1-0.5-1.4C81.8,249.2,78.1,249.1,75.2,251.1z M70.9,253.8c-0.1,0-0.2,0-0.3,0c0,4.4,0,8.8,0,13.1c0.1,0,0.2,0,0.3,0
		C70.9,262.6,70.9,258.2,70.9,253.8z"/>
	<path class="st10" d="M208.2,124.9c0,2.1,0,4.2-0.1,6.3c0,2.7-0.5,5.1,3.1,6.6c3,1.2,2.3,6.5-1,7.7c-2.4,0.9-2.9,2.3-2.8,4.5
		c0.1,1.7,0,3.3,0,5c0,5.7-1.5,10.5-7.5,12.6c-3.7,0.6-7.1,2.4-11,2.1c3.6,0.9,7.3,1.3,10.9,1c0.4,6.8,0.4,6.8-6.3,6.8
		c-9,0-18,0-27,0c-0.4-9.5-0.8-19-1.2-28.6c-0.1-2,0-3.6-2.8-3.8c-2.3-0.2-3.6-2.2-3.7-4.5c-0.1-2.2,1.2-3.7,3.2-4.6
		c0.7-0.3,1.5-0.5,2.2-0.7c0.4,1.3,0.9,2.7,1.5,4.6c1.2-6.2,2.3-11.8,3.6-18.2c3.2,3.8,7.3,4.8,11,6.2c-2,1.2-4.9,0-6.9,2.8
		c3.7-0.7,6.9-0.8,10.2-0.9c-0.7-1.7-2.6-0.7-3.4-2c4-0.7,8.2-1.2,8.7-6.8c2.2,2.3,4.1,4.4,7.1,4.8c3.3,0.4,5-1.4,5.6-4.6
		C203.8,123,205.7,124.4,208.2,124.9z M205.1,130.7c-2.6-2.6-5.5-3.2-9.6-1.5C199.3,129.8,202.2,130.2,205.1,130.7z"/>
	<path class="st13" d="M208.2,124.9c-2.5-0.4-4.4-1.9-6.5-3.7c-0.6,3.2-2.3,5-5.6,4.6c-2.9-0.4-4.8-2.4-7.1-4.8
		c-0.5,5.7-4.7,6.1-8.7,6.8c0,0,0.1,0,0.1,0c-3.8-1.4-7.8-2.4-11-6.2c-1.3,6.4-2.4,12-3.6,18.2c-0.6-1.9-1.1-3.3-1.5-4.6
		c-1.3-5.7-2.6-11.4-3.4-17.3c-1-8,2-12.5,9.8-14.8c8.2-2.4,16.2-1.1,24.1,1.6c1.7,0.6,3.3,1.2,5,1.9c2.9,1.6,5.8,3.1,8.6,4.8
		c1.5,0.9,3,2,4.2,3.2c1.7,1.8,2.8,4,1.8,6.6C213.3,124.3,210.8,124.7,208.2,124.9z"/>
	<path class="st13" d="M86.3,250.2c-0.1-0.2-0.3-0.4-0.3-0.6c-0.6-1.9,0.9-4.5-0.8-5.7c-1.4-1-3.8-0.5-5.8-0.7
		c-8.5-0.8-16.9-2.5-25.5-2.4c-5.6,0.1-6.2,0.6-6.9,6.1c-0.4,2.7-0.9,5.5-1.2,8.2c-0.1,1.5-0.8,1.9-2.1,1.8
		c-0.5-8.1-0.3-16.2-1.9-24.2c-1-4.9,1.7-9.8,6.4-10.6c3.2-0.5,4.7-2,6.8-3.9c2.8-2.5,6-0.8,7.1,3.6c2.9-1.7,5.9-3.3,9.3-1.7
		c1.9,0.9,1.1,2.9,1,4.5c-0.1,0.2-0.2,0.4-0.3,0.6c0.3,0,0.5-0.1,0.8-0.1c4-0.8,5.1-0.4,5.6,3.2c0.3,1.9,1.3,1,2.1,1.1
		c1.7,0.1,3.5-0.1,4.4,1.7c0.8,1.6-0.3,2.9-1.5,4.1c1.7,0.4,3.3,0.6,4.6,1.4c2.4,1.6,2.8,3.3,0.7,5.4
		C86.4,244.4,86.9,247.5,86.3,250.2z"/>
	<path class="st4" d="M180.6,274.4c-1.1,1.6-2.7,1.6-4.2,1.2c-1.8-0.5-0.9-2.2-1.1-3.4c-0.5-3.9-0.4-8.1-1.5-11.8
		c-1.2-3.7,1.3-5.3,2.8-7.5c0.7-1,1.6-1.8,0.2-2.7c-5.7-3.4-5.1-9.4-6-14.6c-2.2-12.2-4-24.4-6-36.6c-0.4-2.5-0.6-5.1-0.9-7.6
		c0.4-0.5,0.9-0.1,1.3-0.2c3.3,1.5,5,4.3,6.2,7.5c2.8,7.3,4,15,5.3,22.6C179.6,238.8,179.7,256.6,180.6,274.4z"/>
	<path class="st2" d="M142,81.7c-3.9-1.5-7.6-2.9-11.2-4.3c-6.8-2.6-6.8-2.7-8.6,4.4c-0.8,3.3-1.6,6.7-2.3,10.1
		c-0.4,2.1-1.6,2-3.2,1.5c-1.5-0.5-3.1-0.2-2.4-2.8c1.8-7,3.3-14,4.9-21.1c0.4-1.8,1.3-2.2,2.9-1.5c6.9,2.7,13.9,5.3,20.8,8
		c1,0.4,1.9,0.8,1.2,2.1C143.4,79.4,143.6,81.2,142,81.7z"/>
	<path class="st1" d="M51.6,52.4c-5-0.1-9-4-9-8.9c0-4.9,4.2-9.1,9.2-9.1c5,0,9.2,4.2,9.1,9.1C60.8,48.6,56.8,52.5,51.6,52.4z
		 M51.6,38.4c-2.7,0.1-4.9,2.5-4.8,5.3c0.1,2.6,2.4,4.8,5,4.7c2.8-0.1,4.9-2.4,4.8-5.3C56.5,40.6,54.2,38.4,51.6,38.4z"/>
	<path class="st4" d="M161.6,358.6c-8.5,2.3-17.1,3.9-25.7,5.3c0-1.3,0-2.7,0-4c1.8-0.6,3.7-0.8,5.6-0.7
		C148.2,359.5,154.9,358,161.6,358.6z"/>
	<path class="st9" d="M115.2,356.6c-0.8-0.7-1.2-1.7-1.3-2.7c2-3,1.8-6.1,0.1-9.2c-0.5-0.9-1.5-1.6-1.4-2.9l0,0
		C118.1,344.4,119.3,350.8,115.2,356.6z"/>
	<path class="st9" d="M117.2,329.6c0,1.4-0.1,2.6,0.4,3.8c0.3,0.7,0.6,1.7-0.3,2c-1,0.4-1.5-0.6-1.9-1.4c-1.2-2.2-0.8-4.4,0.3-6.6
		c0.3-0.5,0.6-1,1.2-0.9c1,0.2,0.6,0.9,0.5,1.6C117.3,328.7,117.3,329.3,117.2,329.6z"/>
	<path class="st7" d="M77.9,289.7c-3.3,0.1-6.5-1.3-9.9-1.1c3.4-0.7,6.7-1.4,10.1-2.2C78.3,287.6,78.5,288.7,77.9,289.7z"/>
	<path class="st13" d="M43.8,265.7c1.8-0.2,2.6,0.5,2.5,2.4c-0.1,2.2,0,4.4,0,6.6c-2.1,0-1.6-1.8-1.8-2.9
		C44.1,269.9,44,267.8,43.8,265.7z"/>
	<path class="st9" d="M112.5,341.8c-0.1-0.1-0.2-0.1-0.3-0.2C112.4,341.7,112.5,341.8,112.5,341.8
		C112.6,341.8,112.5,341.8,112.5,341.8z"/>
	<path class="st2" d="M321.8,178c-4.7,0-9.4-0.1-14,0.1c-2,0.1-3-0.6-3.2-2.5c-0.5-7.1-4.2-11.1-10.2-15.1
		c-23.5-15.7-28.7-46.3-12-69.1c9.2-12.6,22-19.1,37.9-19.8c23.2-1,44.4,15.6,49.3,39c4.2,19.8-5.7,42.5-23.6,51.9
		c-3.6,1.9-5.1,4.2-5.6,8.1c-0.8,7.4-1,7.4-8.6,7.4C328.4,178,325.1,178,321.8,178C321.8,178,321.8,178,321.8,178z M333,171.8
		c0-0.9,0.1-1.8,0-2.6c-1.9-11.8-2.6-23.6-2.7-35.5c0-2.5,0.6-4,2.8-5.4c4-2.5,5.8-6.3,5.5-11c-0.2-2.5-1.2-4.5-3.7-4.9
		c-2.5-0.4-4.1,1.3-4.9,3.6c-1.1,3-0.7,6.2-0.7,9.3c-0.1,4-1,4.8-4.8,3.9c-1.3-0.3-2.5-0.9-3.7-1.5c-1.4-0.7-1.9-1.7-0.7-3.2
		c2-2.5,2.3-5.6,1.7-8.6c-0.4-2.1-1.6-3.8-3.9-3.9c-2.2,0-3.3,1.5-3.9,3.5c-0.9,3.1-0.1,5.9,1.4,8.6c0.4,0.8,1.8,1.5,0.7,2.5
		c-1.6,1.4-3.6,2.1-5.9,2c-1.4-0.1-1.5-0.9-1.7-2c-0.8-3.7-1.7-7.4-2.7-11c-0.6-2.1-1.5-4.2-4.2-3.8c-2.8,0.3-3.5,2.5-3.7,4.8
		c-0.4,5.1,2.2,10.2,7,12.2c2.6,1.1,3.3,2.7,3.7,5.2c2.1,12.1,3,24.3,2.7,36.5c0,1.5,0,3,0,4.5c0-5.3,0.9-10.6,0.7-15.9
		c-0.2-8.8-1-17.5-2.5-26.2c-0.3-1.9,0-2.7,1.9-3c1.6-0.3,10.4-0.1,12,0.3c0.7,0.2,1.6,0.4,2.3,0.3c3.1-0.5,3.7,0.9,3.6,3.7
		C328.9,147,330.4,159.5,333,171.8z M358,139.5c6.3-11.9,4.8-30.4-4.8-43.2c-9-11.8-21.1-17.7-35.9-18c14.9,1.6,27.3,7.7,35.8,20.4
		C361.5,111.3,362.6,125.2,358,139.5z M345.5,153c1.6-0.6,3-1.5,3.8-3.7C347.1,150.1,346,151.3,345.5,153z M333.3,175.2
		c0.1,0.2,0.8-0.5,0-1C333.3,174.8,333.3,175.3,333.3,175.2z M356.8,142.4c0,0.1-0.1,0.2-0.1,0.3c0,0,0.1,0.1,0.2,0.1
		c0-0.1,0.1-0.2,0.1-0.3C357,142.5,356.9,142.4,356.8,142.4z"/>
	<path class="st13" d="M227.6,247c-0.5-11.9-0.9-23.8-2.6-35.7c-0.4-2.4-2.4-3.7-2.8-5.9c1.2-0.4,2.1,0.6,3,1
		c13,6.1,26.2,12.1,39.4,17.8c7.5,3.2,14.8,3.9,22.7,2.4c20.3-3.8,40.7-7.3,61-10.9c1-0.2,2.2-0.9,3,0.4c1.8,7.1,3.7,14.3,5.5,21.4
		c0.1,0.7,0.2,1.3,0.4,1.9c0.8,2,0.1,2.6-1.9,3c-26.5,5.5-53,11.3-79.9,14.8c-4.8,0.6-9.4,0.4-14.1-1.1c-10.4-3.2-20.9-6-31.4-8.9
		C229.1,247.2,228.3,247.1,227.6,247z"/>
	<path class="st12" d="M200.7,271.6l-0.3-0.1c0,0-0.3,0.1-0.3,0.1c-0.4,0-0.9,0-1.3,0.1c-4.5,0.6-9,1.2-13.4,1.8
		c0.4-13.6,1.5-27.2,2.6-40.7c0.6-8.2,0.9-16.4,1.4-24.5c0.2-2.8,0.4-5.5,0.7-8.3c0.4-4.2-0.1-8.2-2.5-11.8
		c-0.8-1.2-0.9-2.4-0.1-3.7c1.3-2.1,2.5-4.2,4.1-7c1.2,3.9,2.7,7.2,5.3,9.8l-0.2,0.2c-2.4,1.8-3.2,4.8-3,7.2c1,12,2.5,24,3.7,36
		c1,10.2,1.7,20.5,2.8,30.8c0.3,3.2,0.6,6.4,0.7,9.6C200.9,271.3,200.9,271.5,200.7,271.6z"/>
	<path class="st10" d="M356.8,237.6c-1.8-7.1-3.7-14.3-5.5-21.4c2,0.2,3.3-0.8,4.2-2.6c1.1-2,2.5-3.9,3.8-5.8c0.4-0.6,1.1-1.2,2-0.8
		c0.7,0.4,0.7,1.1,0.6,1.8c-0.2,1.5-0.4,3.1-0.6,4.6c-0.4,3.2-0.1,3.6,3,2.6c3.6-1.1,7.2-2.2,10.8-3.4c1.3-0.4,2.5-0.5,2.9,1.1
		c0.3,1.2,1.1,1.1,2.1,0.8c2.3-0.6,2.1,0.8,1.6,2.2c-0.2,0.5-0.9,1-0.8,1.4c0.7,6.3-4.4,8-8.4,10.4
		C367.2,231.7,362,234.6,356.8,237.6z"/>
	<path class="st4" d="M206.2,194.7c3.7,9.6,2.1,19.7,2.8,29.5c0.4,5.4,0.3,10.8,0.5,16.3c0.1,2.9,0.2,5.8-1.5,8.3
		c-0.7,1.1-0.9,2.6-0.3,3.5c2.7,4.4,1.7,9.3,1.8,14c0,2.1,0.1,3.6,3.5,3.5c-2.9,1-5,1.5-7.3,1c1.2-4.5,0.3-9,0.2-13.5
		c-0.5-20.9-1.1-41.7-1.6-62.6c0.6,0,1.3-0.1,1.9-0.1L206.2,194.7z"/>
	<path class="st5" d="M430.1,232.8c0.1,5.1-3.8,9.2-8.9,9.3c-5.2,0.2-9.3-3.9-9.3-9.2c0-5,4-9.1,9-9.2
		C425.9,223.8,430.1,227.9,430.1,232.8z M426,233c0-2.6-2.3-4.8-5-4.8c-2.7,0-4.9,2.2-4.9,4.8c0,2.7,2.2,4.8,4.9,4.8
		C423.7,237.7,426,235.5,426,233z"/>
	<path class="st12" d="M406.8,137.3c1,0,1.5,0.7,2,1.2c4.2,3.6,8.3,7.3,12.6,10.8c1.4,1.2,1.1,1.9,0,2.9c-4.6,3.9-9.1,7.7-13.6,11.7
		c-1.5,1.3-2.1,0.2-3-0.7c-1.3-1.3-0.8-2.3,0.4-3.3c2.8-2.4,5.5-4.8,8.4-7.1c2.1-1.7,1.7-2.9-0.2-4.4c-2.8-2.2-5.5-4.5-8.1-6.9
		c-0.6-0.5-1.6-1.1-0.9-2.2C405,138.5,405.7,137.5,406.8,137.3z"/>
	<path class="st10" d="M346.5,183.6c-14.9,0.4-29.9,1.1-44.8-0.8C316.6,181.8,331.6,181.9,346.5,183.6z"/>
	<path class="st10" d="M345.1,189.1c-13.8,1.8-27.7,1.9-41.5,1C317.3,188.3,331.2,188.6,345.1,189.1z"/>
	<path class="st10" d="M337.8,196c-9.2,1.8-18.3,1.5-27.5,0.8C319.5,194.9,328.7,195.5,337.8,196z"/>
	<path class="st5" d="M199.9,170.6c-3.7,0.3-7.3,0-10.9-1c3.9,0.2,7.3-1.6,11-2.1C199.9,168.5,199.9,169.6,199.9,170.6z"/>
	<path class="st10" d="M324.5,203.5c-0.8-0.1-1.9,0.1-1.9-0.9c0-1.5,1.3-1,2.2-1.1c0.8-0.1,1.9,0,1.9,0.9
		C326.6,203.7,325.3,203.3,324.5,203.5z"/>
	<path class="st12" d="M171.4,191c2.7-0.3,5.4-0.6,8.9-1C177,192.1,174.2,191.3,171.4,191z"/>
	<path class="st4" d="M200.7,271.6c0.1-0.1,0.2-0.3,0.1-0.5c1.6-0.1,3.1-0.3,4.7-0.4C204.2,272.4,202.3,271.3,200.7,271.6z"/>
	<path class="st7" d="M206.1,194.5c-0.6,0-1.3,0.1-1.9,0.1c0.1-0.4,0.1-1.1,0.2-1.1C205.1,193.5,205.7,193.9,206.1,194.5z"/>
	<path class="st12" d="M196.9,187.4c0.1,0.1,0.2,0.3,0.3,0.4c-0.1-0.1-0.3-0.2-0.4-0.2C196.7,187.5,196.9,187.4,196.9,187.4z"/>
	<path class="st10" d="M371.3,399.4c4.7-2.4,9.5-4.7,14.1-7.2c2.2-1.2,2.7-0.3,2.6,1.7c-0.4,2.5,0.7,4.9,0.7,7.3
		c0.3,3.6,0.7,7.3,1,10.9c0.1,1,0.3,2-0.5,2.8c-12.4-0.1-24.9-0.1-37.3-0.2c-1.2,0-3.1,0.9-3.5-1.4c2-1.3,4-2.7,6.1-4
		C360.1,406.1,366,403.2,371.3,399.4z"/>
	<path class="st9" d="M490.9,452.8c-0.2,0.4-0.5,0.4-0.7,0c-0.3-1.5-0.8-3-0.7-4.5c0.2-1.5-0.5-2.2-2.1-2.2
		c-4.2,0.1-8.3-0.3-12.5-0.6c-5.2-0.4-5.2-0.1-4.8,4.9c0.1,0.9,0,1.8,0,2.6c-0.2,0-0.5,0-0.7,0c-0.2-1.6-0.6-3.3-0.6-4.9
		c0-4.8-3.6-2.5-5.5-2.7c-2.9-0.2-1.6,2-1.4,3.5c0.2,1.3,0.2,2.6,0.2,3.9c-0.4,0.3-0.9,0.3-1.3,0c0-1.3-0.2-2.7,0-4
		c0.4-3.1-0.9-3.7-3.7-3.7c-3,0-4.1,0.9-3.7,3.8c0.1,0.9,0,1.9,0,2.8c-0.7-0.6-0.7-1.1-0.7-1.7c-0.1-5.1,1-4.9-5.1-4.9
		c-0.3,0-0.7,0-1,0c-1.2,0-2,0.5-1.9,1.7c0.2,2-0.7,3.9-0.8,5.9c-0.1,0.3-0.2,0.6-0.3,0.8c-0.1-0.3-0.2-0.6-0.3-0.8
		c0-1.3-0.4-2.8,0.1-3.9c1.3-3.5-0.3-3.8-3.2-3.8c-2.3,0-3.2,0.8-3,3.1c0.1,1.5,0,3.1,0,4.6c-1.2,0.6-2.5,0.1-3.8,0.2
		c-0.1-2.8-0.1-5.6-0.2-8.4c28-1,56,0.3,84.3,2.4c-5.7-0.7-3.9,3.3-4.2,6c-0.1,0.3-0.2,0.6-0.3,0.9c-0.1-0.3-0.2-0.6-0.3-0.9
		c0-1.3-0.1-2.7-0.1-4c0-1.1-0.5-1.6-1.6-1.7c-2.2-0.2-4.4-0.6-6.6-0.6c-4.3-0.1-4.3,0-3.9,4.3c0.1,0.7,0,1.3-0.1,2
		c-0.5,2-0.8-0.4-1.2,0c0-1.4,0-2.9,0-4.3c0-0.9-0.1-1.8-1.3-1.9c-1.5-0.2-3-0.5-4.6-0.7c-2.6-0.3-4.2,0.2-2.9,3.4
		C491.1,450.5,490.8,451.7,490.9,452.8z"/>
	<path class="st9" d="M388.8,401.3c0-2.5-1.1-4.8-0.7-7.3c1-1.2,0.4-2.6,0.6-4c6.9,0.7,13.9,1.6,20.8,1.3c6-0.2,11.9-0.7,17.8-1.8
		c0.9-0.2,1.9,0,2.8,0.1c-5.6,1.6-11.3,2-17,2.3c-6.7,0.3-13.5,0.3-20.3-0.6c-2.7-0.4-3.8,0.6-3.6,3.4
		C389.3,396.9,389.8,399.1,388.8,401.3z"/>
	<path class="st9" d="M482.9,334.7c-7.1,1.6-14.1,1.5-21.2,0C468.7,335.4,475.8,335.5,482.9,334.7z"/>
	<path class="st9" d="M489.2,333.4c-1.3,0.7-2.3,1.1-3.6,1.1c2.5-2.6,0.6-5.8,2-8.5c0,1.3-0.1,2.7,0,4
		C487.6,331.2,486.9,332.9,489.2,333.4z"/>
	<path class="st9" d="M438.6,386.9c-2,3.3-4.7,1.2-6.7,1.8C433.9,388.2,435.9,387.7,438.6,386.9z"/>
	<path class="st8" d="M357.2,347.8c0.9-1.5,3.3-0.8,4-2.6c0,0,0,0,0,0c0.7,0.1,1.5-0.2,2.4,0.6C361.5,346.8,359.6,348,357.2,347.8
		C357.2,347.9,357.2,347.8,357.2,347.8z"/>
	<path class="st9" d="M442.5,374.8c-1.5-2.4,1.1-4.1,0.4-6.1C443.6,370.7,443.5,372.6,442.5,374.8z"/>
	<path class="st8" d="M372.6,341.8c-0.8,0.5-1.7,0.9-2.5,1.5c-0.5,0.3-1,0.6-1.5,0.3c-0.5-0.3-0.1-0.8-0.1-1.2
		c0.1-0.9,0.7-0.9,1.4-0.7C370.8,341.9,371.7,341.8,372.6,341.8C372.6,341.8,372.6,341.8,372.6,341.8z"/>
	<path class="st9" d="M436.9,370.9c1.6-0.6,2.3,0.4,3.2,0.7C439.1,371.9,438,372.1,436.9,370.9z"/>
	<path class="st8" d="M365.8,343.8c0.4,0.2,0.7,0.3,1,0.4c-0.3,0.3-0.6,0.7-0.9,0.8c-0.2,0.1-0.6-0.2-0.9-0.3
		C365.3,344.5,365.5,344.1,365.8,343.8z"/>
	<path class="st8" d="M359.2,340.5c1.2,0.5,1.4,1.5,1.3,2.7l0,0C359.3,342.7,359.1,341.6,359.2,340.5L359.2,340.5z"/>
	<path class="st8" d="M357.2,335.7c0.2-0.2,0.5-0.4,0.7-0.5c0,0.7,0,1.3,0,2l0,0C357.3,336.8,357.2,336.3,357.2,335.7z"/>
	<path class="st8" d="M372.6,341.8c0.5-0.8,1.3-0.6,2-0.7l0,0C374.1,341.9,373.3,341.8,372.6,341.8
		C372.6,341.8,372.6,341.8,372.6,341.8z"/>
	<path class="st8" d="M360.6,343.2c0.8,0.5,0.6,1.3,0.7,2c0,0,0,0,0,0C360.4,344.7,360.6,343.9,360.6,343.2
		C360.5,343.2,360.6,343.2,360.6,343.2z"/>
	<path class="st8" d="M359.2,340.5c-0.2-0.2-0.3-0.5-0.5-0.7c0,0,0.2-0.1,0.2-0.2C359,339.9,359.1,340.2,359.2,340.5
		C359.2,340.5,359.2,340.5,359.2,340.5z"/>
	<path class="st9" d="M469.7,409.6c0,0.1,0,0.2,0,0.2c-0.1,0-0.2,0-0.2,0.1c0-0.1,0-0.2,0-0.3C469.5,409.5,469.6,409.6,469.7,409.6z
		"/>
	<path class="st8" d="M374.6,341.2c0.2-0.2,0.5-0.3,0.7-0.5c0.1,0.1,0.1,0.2,0.2,0.3C375.2,341,374.9,341.1,374.6,341.2
		C374.6,341.2,374.6,341.2,374.6,341.2z"/>
	<path class="st8" d="M357.9,337.1c0.2,0.2,0.3,0.5,0.5,0.7c-0.1,0.1-0.2,0.1-0.3,0.2C358,337.7,357.9,337.5,357.9,337.1
		C357.9,337.2,357.9,337.1,357.9,337.1z"/>
	<path class="st9" d="M446.3,385c-0.1,0-0.1,0.1-0.2,0.1c-0.1-0.1-0.1-0.2-0.2-0.3c0.1,0,0.2-0.1,0.2,0
		C446.3,384.8,446.3,384.9,446.3,385z"/>
	<path class="st9" d="M444.3,385.5c0,0.1,0,0.2,0,0.2c-0.1,0-0.2,0-0.2,0.1c0-0.1,0-0.2,0-0.3C444.1,385.5,444.2,385.5,444.3,385.5z
		"/>
	<path class="st9" d="M441.9,386.2c0.1,0,0.2-0.1,0.2-0.1c0,0.1,0,0.2,0.1,0.3c-0.1,0-0.2,0-0.2-0.1
		C441.9,386.4,441.9,386.3,441.9,386.2z"/>
	<path class="st9" d="M440.3,387c-0.1,0-0.2,0.1-0.2,0.1c0-0.1,0-0.2-0.1-0.3c0.1,0,0.2,0,0.2,0.1C440.3,386.9,440.3,387,440.3,387z
		"/>
	<path class="st9" d="M494.2,394c-0.1,0.1-0.2,0.2-0.3,0.3C494,394.1,494.1,394.1,494.2,394C494.2,394,494.2,394,494.2,394z"/>
	<path class="st9" d="M494.9,393.3c-0.2,0.2-0.4,0.4-0.7,0.7c0,0,0,0,0,0C494.4,393.7,494.7,393.5,494.9,393.3L494.9,393.3z"/>
	<path class="st9" d="M494.9,393.3c0.1-0.1,0.1-0.2,0.2-0.3C495,393.1,495,393.2,494.9,393.3C494.9,393.3,494.9,393.3,494.9,393.3z"
		/>
	<path class="st9" d="M501.6,386.6c-0.1,0.1-0.1,0.2-0.2,0.3C501.5,386.8,501.5,386.7,501.6,386.6L501.6,386.6z"/>
	<path class="st9" d="M501.6,386.6c0.2-0.2,0.4-0.4,0.7-0.7l0,0C502,386.2,501.8,386.4,501.6,386.6
		C501.6,386.6,501.6,386.6,501.6,386.6z"/>
	<path class="st9" d="M502.2,385.9c0.1-0.1,0.1-0.2,0.2-0.3C502.4,385.8,502.3,385.9,502.2,385.9C502.3,386,502.2,385.9,502.2,385.9
		z"/>
	<path class="st3" d="M207.3,311.8c0.1,2,0.2,4,0.2,6c0.2,8.6,0.3,17.3,0.5,25.9c-6.2,0.3-12.4,0.6-18.7,1c-0.9-0.2-1.8-0.1-2.7,0.2
		c-1.1,0-2.3-0.1-3.4-0.1c-0.4-7.4-0.8-14.9-1.2-22.3c0-0.7,0.1-1.3,0.1-2c1.3-0.7,2.7-1.5,4.2-1.7c2,1.1,2,3.4,2.8,5.1
		c1.8,3.7,2.6,7.9,5.1,12.1c2.1-7.9,4.9-14.9,6.3-22.3c0.2-0.3,0.4-0.6,0.7-0.9C203.5,313.1,205.2,311,207.3,311.8z"/>
	<path class="st13" d="M182.3,320.5c0,0.7-0.1,1.3-0.1,2c-1.1-1.7-2.5-1-3.8-0.5c-5.9,2.3-11.9,3.3-18.2,3.2
		c-9.8-0.2-16.6-5.1-21.9-12.8c-2.7-3.9-4.2-8.1-3.6-12.8c0-0.3,0-0.7,0.2-1c0.1-0.2,0.3-0.3,0.6-0.5c2.6,6.3,7.1,11.1,12.1,15.4
		c7.2,6.3,15.6,5.8,24.2,3.2c3.5-1,6.9-2.5,10.6-2.8C181.9,316.1,182,318.3,182.3,320.5z"/>
	<path class="st1" d="M201.4,312.9c-0.2,0.3-0.4,0.6-0.7,0.9c-0.9,0.3-1.9,0.6-2.8,0.9c-3.8,0.9-7.1,3.4-11.2,3.5
		c-0.5-1.7-0.9-3.3-1.4-5c5.8-2,11.6-4,17.4-6C202.3,309.1,201.9,311,201.4,312.9z"/>
	<path class="st4" d="M183.3,344.8c1.1,0,2.3,0.1,3.4,0.1c-2.1,3.9-1.3,5.5,3.3,5.5c2.2,0,1.1,1.4,1.4,2.1c-2.6,1-5.3,1.2-7.9,1.7
		C183.4,351.1,183.4,347.9,183.3,344.8z"/>
	<path class="st11" d="M201.4,312.9c0.4-1.9,0.9-3.8,1.3-5.7c1.1-0.5,2.2-1,3.4-1.4c2.3,1.6,0.8,4,1.2,6
		C205.2,311,203.5,313.1,201.4,312.9z"/>
	<path class="st11" d="M185.4,313.1c0.5,1.7,0.9,3.3,1.4,5c-0.1,0.2-0.2,0.5-0.3,0.7c-1.5,0.2-2.9,0.9-4.2,1.7
		c-0.3-2.2-0.4-4.4,0-6.7C183.3,313.6,184.3,313.4,185.4,313.1z"/>
	<path class="st4" d="M173.7,275.7c0.2,0.1,0.3,0.2,0.5,0.3c-0.2,0.1-0.3,0.3-0.5,0.3c-0.2,0-0.3-0.2-0.5-0.2
		C173.4,275.9,173.5,275.8,173.7,275.7z"/>
	<path class="st4" d="M198.8,271.8c0.4,0,0.9,0,1.3-0.1C199.7,272.3,199.3,272.4,198.8,271.8z"/>
	<path class="st0" d="M124,565.9c0-20.2-0.1-40.5,0-60.7c0-6.9,0.3-6.9-6.8-6.9c-11.3,0-22.7,0.3-34-0.2c-7.6-0.3-15.3,0-22.9,0.1
		c0-16.7,0.1-33.3,0.1-50c15.4-0.1,30.7-0.1,46.1-0.2c9.8,0,19.6,0,29.4,0c7.4,0,14.7,0,22.1,0c0.9,0,1.8,0,2.7,0
		c0,1,0.7,1.2,1.5,1.5c13.3,4.7,18.4,15.9,14.7,29.2c-4.7,17-11.1,33.5-17.5,49.9c-4.4,11.4-9.2,22.6-13.8,33.9
		c-1.4,3.5-1.2,3.8,2.7,3.8c8.8,0,17.6,0,26.4,0c-1,5.4-3.3,10.3-5.3,15.4c-9.2,0.3-18.4-0.4-27.5-0.7c0.6-3.9,1.2-7.8,1.9-11.7
		c0.4-2.2-0.1-3.2-2.5-3C135.6,566.2,129.8,565.5,124,565.9z"/>
	<path class="st13" d="M174.7,566.4c-8.8,0-17.6,0-26.4,0c-4,0-4.2-0.3-2.7-3.8c4.6-11.3,9.4-22.5,13.8-33.9
		c6.4-16.4,12.7-32.9,17.5-49.9c3.7-13.3-1.4-24.5-14.7-29.2c-0.8-0.3-1.5-0.5-1.5-1.5c1.3,0,2.7,0,4,0c5.4,0,10.7,0,16.1,0
		c3.6,0.1,7.1,0.1,10.7,0.2c7.7,1.7,14,5.4,17.7,12.6c2.9,5.6,2.8,11.5,1.2,17.5c-4.5,16.6-10.8,32.6-17,48.6c-0.5,1.3,0,3-1.3,4
		c-2.4,4.6-3.9,9.5-6,14.3c-3.1,7.1-5.4,14.4-9.2,21.2C176.1,566.5,175.4,566.4,174.7,566.4z"/>
	<path class="st0" d="M52.9,497.4c-2.3-0.5-4.6-0.8-6.8-1.5c-17.4-5-26.6-18.9-25.4-38.4c0.2-3,0.4-6,0.7-9c1.3-0.1,2.6-0.2,4-0.2
		c9.3-0.1,18.5-0.2,27.8-0.3c0,8.8,0,17.6,0.1,26.4c0,2-0.4,3.4-2.9,3.4c2.1,0.2,3,1.2,2.9,3.1C52.9,486.5,52.9,491.9,52.9,497.4z"
		/>
	<path class="st6" d="M135.8,398.7c15.8-7,31.6-14,47.4-21c0.7-0.3,1.5-0.3,2.2-0.4c-0.2,0.5-0.5,1-0.6,1.5
		c-1.5,12.1-2.2,24.2-2.5,36.4c-15.6,0-31.1,0-46.7,0c0.4-5.3,0.2-10.6,0.1-15.9C135.8,399.1,135.8,398.9,135.8,398.7z"/>
	<path class="st14" d="M106.5,448.1c-15.4,0.1-30.7,0.1-46.1,0.2c0-8.1,0.1-16.2,0.1-24.3c0-1.6,0.4-2.3,2.3-2.3
		c14.3,0,28.7,0,43-0.1C106,430.4,106.3,439.2,106.5,448.1z"/>
	<path class="st1" d="M422.7,603.7c0,4.6,0,9.1,0,13.7c0.1,0.2,0.1,0.3,0,0.5c-2.2,1-4.5,1.1-6.7,0c-0.1-0.2-0.1-0.3,0-0.5
		c-0.7-2.7,0.3-5.4,0-8.1c-0.2-1.8-0.1-3.7-0.2-5.6c0-31.7,0.1-63.4,0.1-95.2c0-5.5-0.2-5.5,5.2-5.5c1.7,0,3.3,0,5,0
		c0,2.2,0,4.3,0,6.5c-2.9-0.6-3.8,0.6-3.6,3.6c0.3,5.5,0.1,11.1,0.2,16.6c-0.1,0.8-0.3,1.5-0.3,2.3c0,22.9,0,45.8,0,68.7
		C422.3,601.7,422.5,602.7,422.7,603.7z"/>
	<path class="st6" d="M135.9,448.1c0-8.9-0.1-17.8-0.1-26.7c6.2,0,12.5,0.1,18.7-0.1c2.9-0.1,3.6,1.1,3.6,3.8c-0.1,7.7,0,15.4,0,23
		C150.6,448.1,143.2,448.1,135.9,448.1z"/>
	<path class="st14" d="M53,448c-9.3,0.1-18.5,0.2-27.8,0.3c-1.3,0-2.6,0.1-4,0.2c-1.7-2.3-0.7-4.9-0.9-7.4c-0.2-1.9-0.1-3.8-0.2-5.7
		c9.6,2.2,18-1.7,26.5-5.2c2-0.8,3.9-2.1,6.2-2.1C52.9,434.8,53,441.4,53,448z"/>
	<path class="st6" d="M180.8,448.1c-5.4,0-10.7,0-16.1,0c0-7.8,0.1-15.5,0-23.3c0-2.6,0.9-3.6,3.5-3.5c4.7,0.1,9.3,0.1,14,0.1
		C181.7,430.3,181.2,439.2,180.8,448.1z"/>
	<path class="st5" d="M422.7,603.7c-0.1-1-0.4-2-0.4-3c0-22.9,0-45.8,0-68.7c0-0.8,0.2-1.5,0.3-2.3c1.2,3.3,2.3,6.6,3.5,9.9l0.2,0
		c0,0,0.1,0.2,0.1,0.2c-0.3,0.6-0.3,1.2-0.1,1.9c0,19.2,0,38.5-0.1,57.7c0,1.4-0.1,2.9-0.2,4.3C424.9,603.7,423.8,603.7,422.7,603.7
		z"/>
	<path class="st8" d="M111.2,407.3c-0.9,2.5-0.7,5.1-0.6,7.7c-6.4,0.5-12.9,0.3-19.3,0.1c0-0.6,0-1.2,0-1.8c6.7-3.1,13.4-6.2,20-9.3
		C111.3,405.2,111.2,406.2,111.2,407.3z"/>
	<path class="st15" d="M426.1,539.7c-1.2-3.3-2.3-6.6-3.5-9.9c0-5.5,0.1-11.1-0.2-16.6c-0.1-2.9,0.7-4.1,3.6-3.6
		C426.4,519.6,426.3,529.7,426.1,539.7z"/>
	<path class="st14" d="M91.3,413.4c0,0.6,0,1.2,0,1.8c-2.2,0-4.5,0-6.7,0c1.4-2.4,4.2-2,6.3-3.1C91,412.5,91.1,412.9,91.3,413.4z"/>
	<path class="st0" d="M315.1,614.6c-0.6-0.1-1.6,0.3-1.6-0.6c-0.1-0.9,1-1,1.6-1.4C315.1,613.2,315.1,613.9,315.1,614.6z"/>
	<path class="st0" d="M319.1,616.6c-0.7-0.4-1.3-0.9-2-1.3C318.1,615.2,319,615.2,319.1,616.6z"/>
	<path class="st7" d="M426.3,541.8c-0.2-0.6-0.3-1.2,0.1-1.9C427,540.5,426.7,541.2,426.3,541.8z"/>
	<path class="st7" d="M212.8,599.3c-0.1,0.3-0.3,0.5-0.4,0.8c-0.1-0.3-0.2-0.6-0.3-0.9C212.4,599.2,212.6,599.3,212.8,599.3z"/>
	<path class="st3" d="M470.2,453.1c0-0.9,0-1.8,0-2.6c-0.4-5-0.4-5.3,4.8-4.9c4.2,0.3,8.3,0.6,12.5,0.6c1.6,0,2.3,0.7,2.1,2.2
		c-0.2,1.6,0.4,3,0.7,4.5c-3.8,0-7.6,0.1-11.4,0.1c-0.1-1.4,0.3-2.8-0.6-5.1c0,2.3,0,3.7,0,5.1C475.5,453,472.9,453.5,470.2,453.1z"
		/>
	<path class="st3" d="M444,453.1c0.1-2,1-3.9,0.8-5.9c-0.1-1.3,0.6-1.8,1.9-1.7c0.3,0,0.7,0,1,0c6.1,0,5.1-0.3,5.1,4.9
		c0,0.5,0,1.1,0.7,1.7c0-0.9,0.1-1.9,0-2.8c-0.4-2.9,0.7-3.8,3.7-3.8c2.8,0,4.2,0.7,3.7,3.7c-0.2,1.3,0,2.7,0,4
		C455.2,453.5,449.6,453.3,444,453.1z"/>
	<path class="st3" d="M500.8,453.1c0-0.7,0.1-1.3,0.1-2c-0.4-4.3-0.4-4.4,3.9-4.3c2.2,0.1,4.4,0.5,6.6,0.6c1.1,0.1,1.6,0.6,1.6,1.7
		c0,1.3,0.1,2.7,0.1,4C508.9,453.3,504.9,453.4,500.8,453.1z"/>
	<path class="st3" d="M490.9,452.8c0-1.1,0.2-2.3-0.2-3.3c-1.3-3.2,0.4-3.7,2.9-3.4c1.5,0.2,3,0.5,4.6,0.7c1.2,0.2,1.3,1,1.3,1.9
		c0,1.4,0,2.9,0,4.3C496.7,453.5,493.8,452.7,490.9,452.8z"/>
	<path class="st3" d="M462.1,453c-0.1-1.3-0.1-2.6-0.2-3.9c-0.2-1.5-1.4-3.7,1.4-3.5c2,0.1,5.5-2.1,5.5,2.7c0,1.6,0.4,3.3,0.6,4.9
		C467,453.4,464.6,453.4,462.1,453z"/>
	<path class="st3" d="M437.4,453c0-1.5,0.1-3.1,0-4.6c-0.2-2.3,0.6-3,3-3.1c2.9,0,4.5,0.4,3.2,3.8c-0.4,1.2-0.1,2.6-0.1,3.9
		C441.5,453.3,439.4,453.4,437.4,453z"/>
	<path class="st9" d="M478.2,453c0-1.4,0-2.8,0-5.1c0.9,2.3,0.5,3.7,0.6,5.1c0,0-0.3,0.1-0.3,0.1L478.2,453z"/>
	<path class="st10" d="M489,296.4c0-1.6-0.2-3.1,0-4.7c0.1-1.3-0.8-3.2,0.9-3.9c1.5-0.6,3.3-0.5,4.6,1c1.2,1.4,2.3,2.8,1.5,4.8
		c-0.3,0.8-0.8,1.6-1.2,2.4C492.7,295.2,490.8,295.8,489,296.4z"/>
	<path class="st11" d="M448.8,308.4c0.2,0.2,0.4,0.3,0.5,0.5c-2.3,1.2-4.5,2.3-7.4,0.2C444.6,309.1,446.8,309.3,448.8,308.4z"/>
	<path class="st11" d="M489,296.4c1.9-0.6,3.7-1.2,5.7-0.4c0.3,0.2,0.6,0.5,0.9,0.7c0.1,0.2,0,0.3-0.2,0.4c-2.1-0.2-4.1-0.3-6.2,0.2
		c-0.2-0.1-0.3-0.3-0.4-0.4C488.8,296.8,488.9,296.6,489,296.4z"/>
	<path class="st11" d="M489.7,308.9c1.8,0.1,3.7,0.2,5.8,0.3c-2.2,1.8-4.2,1.3-6.1,0.2C489.4,309.2,489.6,309.1,489.7,308.9z"/>
	<path class="st7" d="M498.4,300c1.6,1.5,1.2,3.3,0.7,5.1C498.9,303.4,499,301.7,498.4,300z"/>
	<path class="st11" d="M486.9,299.7c-0.1-1.2,0.4-2.1,1.3-2.8c0.2,0,0.4,0,0.5,0c0.1,0.1,0.3,0.3,0.4,0.4c-0.3,0.3-0.7,0.7-1,1
		C487.7,298.8,487.3,299.2,486.9,299.7C486.9,299.7,486.9,299.7,486.9,299.7z"/>
	<path class="st7" d="M496.9,297.7c-0.7,0.2-1.1-0.1-1.5-0.6c0.2-0.1,0.3-0.2,0.2-0.4C496,297,496.7,297,496.9,297.7L496.9,297.7z"
		/>
	<path class="st11" d="M488.2,309.2c0-0.4,0-0.7,0-1.1c0.5,0.3,1,0.6,1.5,0.8c-0.1,0.1-0.3,0.3-0.4,0.5
		C488.9,309.3,488.6,309.2,488.2,309.2z"/>
	<path class="st7" d="M497.6,298.4c0.2,0.1,0.3,0.2,0.5,0.3c-0.1,0.1-0.2,0.2-0.3,0.2C497.6,298.8,497.6,298.6,497.6,298.4
		C497.6,298.4,497.6,298.4,497.6,298.4z"/>
	<path class="st7" d="M496.9,297.7c0.4,0,0.6,0.2,0.7,0.7c0,0,0,0,0,0C497.1,298.4,496.8,298.2,496.9,297.7
		C496.9,297.7,496.9,297.7,496.9,297.7z"/>
	<path class="st2" d="M478.7,279.3c-2.5,0.4-4.9,0-7.3,0.6C473.7,277.9,476.2,277.9,478.7,279.3z"/>
	<path class="st2" d="M451.4,280.7c1.9-1.9,3.9-2.1,6.7-0.6C455.4,280.5,453.3,280.2,451.4,280.7z"/>
	<path class="st2" d="M486.9,299.7c-0.2,0.3-0.4,0.7-0.6,1c-0.1-0.1-0.2-0.2-0.4-0.4C486.2,300.1,486.6,299.9,486.9,299.7
		C486.9,299.7,486.9,299.7,486.9,299.7z"/>
	<path class="st2" d="M485.9,303.3c-0.2,0-0.4,0-0.6,0.1c0-0.2,0-0.4,0.1-0.6c0,0,0.3-0.1,0.3,0
		C485.8,302.9,485.8,303.1,485.9,303.3z"/>
	<path class="st2" d="M486.3,306.1c-0.2-0.1-0.3-0.2-0.4-0.3c0.1-0.1,0.3-0.3,0.4-0.4c0,0,0.2,0.1,0.2,0.2
		C486.5,305.8,486.4,305.9,486.3,306.1z"/>
	<path class="st11" d="M124,565.9c5.8-0.3,11.6,0.3,17.4,0.5c-1.6,5.4-3.3,10.8-4.9,16.1c-4.1-1.2-8.3-0.5-12.5-0.8
		C124,576.5,124,571.2,124,565.9z"/>
	<path class="st3" d="M124,581.8c4.2,0.2,8.4-0.4,12.5,0.8c0,4,0,8,0,12c-1.1,1.7,0.5,4.3-0.9,5.2c-1.4,1-3.1-1.3-5-1.3
		c-2.2,0-4.4,0-6.6,0c0-3.3,0-6.6,0-9.9c3.4-0.1,6.8,0.8,10.1-0.3c-3.3-1.2-6.7-0.8-10.1-1c0-0.3,0-0.6,0-0.8c3.6,0,7.3,0,10.9,0
		c0-0.4,0-0.9,0-1.3c-3.6,0-7.3,0-10.9,0C124,583.9,124,582.9,124,581.8z"/>
	<path class="st9" d="M124,612.6c9.9,0,19.8,0,29.8,0c0,0.2,0,0.4,0,0.6c-9.9,0-19.9,0-29.8,0C123.9,613,123.9,612.8,124,612.6z"/>
	<path class="st5" d="M124,587.2c3.4,0.2,6.8-0.2,10.1,1c-3.3,1.2-6.7,0.2-10.1,0.3C124,588.1,124,587.7,124,587.2z"/>
	<path class="st5" d="M124,585c3.6,0,7.3,0,10.9,0c0,0.4,0,0.9,0,1.3c-3.6,0-7.3,0-10.9,0C124,585.9,124,585.5,124,585z"/>
	<path class="st9" d="M117.1,613.2c-3.3,0-6.6,0-9.9,0c0-0.2,0-0.4,0-0.6c1.5,0,3,0,4.5,0c0.7,0,1.8,0.2,2-0.7
		c0.8-3.2,0.7-0.2,1,0.1c0.6,0.9,1.6,0.5,2.4,0.6C117.2,612.8,117.2,613,117.1,613.2z"/>
	<path class="st4" d="M189.4,344.7c6.2-0.3,12.4-0.6,18.7-1c0,2.8,0.1,5.5,0.1,8.3c-1.8,0.5-3.6,0.9-5.4,1.4
		c-2.2,0.7-2.3-0.5-1.9-2.1c0.4-1.7,0.9-3.4,1.2-5.1c0.1-0.6,0.2-1.5-0.6-1.6c-0.4-0.1-1.1,0.2-1.4,0.6c-1.5,1.6-2.9,3.3-4.2,5
		c-1,1.3-1.9,2.4-3.8,2.2C192,349.6,193.1,346.3,189.4,344.7z"/>
	<path class="st4" d="M176.9,566.5c-0.3,10.7-0.6,21.4-0.9,32c-0.4,0.1-0.8,0.3-1.1,0.4c-1.3,0.4-2.7,0.3-4.1,0.1
		c0-0.6,0.1-1.2,0.1-1.8c0.1-0.1,0.2-0.3,0.2-0.4c-0.1,0.1-0.3,0.2-0.4,0.2c-2.1-4-2,1.3-3.3,0.7c-0.1-0.5-0.1-1-0.2-1.5
		c-0.1,0-0.3,0-0.4,0c0,0.5-0.1,1-0.1,1.5c-0.6,0.8-1.4,0.6-2.2,0.6c0.1-2.9,1.3-5.1,4.3-6.7c-3.4-0.1-1.3-2.1-1.7-3.1
		c1.5-2,2-4.3,2.3-6.7c2-5.1,4.2-10,5.2-15.4C175.4,566.4,176.1,566.5,176.9,566.5z M173.2,593c1.1,1.2,1.6,0.2,1.9-0.8
		c0.3-1-0.4-1.1-1.1-1.1c-1.2,0-2.5,0.1-2.4,1.5C171.6,594.3,172.6,592.5,173.2,593z"/>
	<path class="st7" d="M208.5,601.9c0.4,1.9,0.3,3.6-0.7,5.4C207,605.2,208.1,603.6,208.5,601.9z"/>
	<path class="st7" d="M210.5,601.1c-0.2-0.1-0.4-0.2-0.5-0.3c0.2-0.1,0.4-0.3,0.5-0.2c0.2,0,0.3,0.2,0.5,0.3
		C210.8,601,210.6,601.1,210.5,601.1z"/>
	<path class="st0" d="M174.8,598.9c0.4-0.1,0.8-0.3,1.1-0.4c0.1,0.2,0.1,0.4,0,0.6C175.5,599,175.1,599,174.8,598.9z"/>
	<path class="st11" d="M167.2,588.5c0.4,1.1-1.8,3.1,1.7,3.1c-3,1.6-4.2,3.8-4.3,6.7c-7.5,0-15,0.1-22.5,0.1c-1.6,0-3,0.2-4.2,1.2
		c0,0,0.2-0.1,0.2-0.1c0-0.4,0-0.8,0-1.2c-1-1.1-0.6-1.8,0.7-2.4c1.4-0.7,2.2-2,2.9-3.4c0.7-1.4,0-2-1.4-2c-0.2-0.8-0.2-1.6,0.6-2.2
		c6.4,0,12.9,0.1,19.3,0.1C162.4,588.5,164.8,590.2,167.2,588.5z"/>
	<path class="st6" d="M140.7,588.5c-0.8,0.6-0.7,1.3-0.6,2.2c-1.6,0.9-1.3,3.7-3.7,3.9c0-4,0-8,0-12c1.6-5.4,3.3-10.8,4.9-16.1
		c2.3-0.3,2.9,0.8,2.5,3c-0.7,3.9-1.3,7.8-1.9,11.7C141.1,583.5,140.4,585.9,140.7,588.5z"/>
	<path class="st9" d="M113.5,608.4c0.1,0,0.2,0,0.2,0c0,0.1,0,0.2,0.1,0.2c-0.1,0-0.2,0-0.3,0C113.4,608.5,113.4,608.4,113.5,608.4z
		"/>
	<path class="st0" d="M137.9,598.4c0,0.4,0,0.8,0,1.2c-0.4,0-0.9,0.1-1-0.4C136.7,598.3,137.5,598.6,137.9,598.4z"/>
	<path class="st15" d="M352.5,313.8c0.1,0.1,0.2,0.2,0.3,0.2c-0.1,0-0.1,0-0.2,0C352.6,313.9,352.6,313.8,352.5,313.8
		C352.5,313.7,352.5,313.8,352.5,313.8z"/>
	<path class="st13" d="M166.7,597.8c0-0.5,0.1-1,0.1-1.5c0.1,0,0.3,0,0.4,0c0.1,0.5,0.1,1,0.2,1.5
		C167.1,597.8,166.9,597.8,166.7,597.8z"/>
	<path class="st15" d="M298.5,584.3c1.1,0.9,0.8,1.8,0.1,2.8C298.1,586.2,297.3,585.3,298.5,584.3z"/>
	<path class="st12" d="M416,617.3c-0.1,0.2-0.1,0.3,0,0.5c-9.4,0-18.8,0-28.2,0c0-0.2,0-0.3,0-0.5
		C397.2,617.3,406.6,617.3,416,617.3z"/>
	<path class="st12" d="M422.7,617.8c0.1-0.2,0.1-0.3,0-0.5c3.4,0,6.8,0,10.1,0c0,0.2,0,0.3,0,0.5
		C429.4,617.8,426.1,617.8,422.7,617.8z"/>
	<path class="st0" d="M290.2,599.1c0.4,1.4,0.3,2.6-0.4,3.9c-0.4,0.8-1,0.8-1.7,0.4c-1.3-0.9,0.2-0.8,0.5-1.1
		C289.4,601.3,288.7,599.7,290.2,599.1z"/>
	<path class="st0" d="M304.3,610.4c-0.1-0.2-0.2-0.4-0.1-0.5c0.1-0.1,0.3-0.2,0.5-0.3c0.1,0.2,0.2,0.4,0.1,0.5
		C304.7,610.3,304.5,610.3,304.3,610.4z"/>
	<path class="st0" d="M298.9,607.2c-0.1,0.2-0.2,0.4-0.3,0.5c-0.1,0.1-0.3-0.1-0.5-0.2c0.1-0.2,0.2-0.4,0.3-0.5
		C298.5,607,298.7,607.1,298.9,607.2z"/>
	<path class="st0" d="M292.8,604.5c-0.1,0.1-0.3,0.3-0.4,0.4c-0.1-0.1-0.2-0.3-0.3-0.4c0,0,0.1-0.2,0.2-0.2
		C292.5,604.4,292.7,604.5,292.8,604.5z"/>
	<path class="st0" d="M281.7,600.4c-0.1,0-0.2-0.1-0.3-0.1c0.1-0.1,0.2-0.2,0.3-0.3c0.1,0.1,0.1,0.1,0.2,0.2
		C281.9,600.3,281.8,600.3,281.7,600.4z"/>
	<path class="st0" d="M279.9,599.5c-0.1,0-0.1,0.1-0.2,0.1c-0.1-0.1-0.1-0.2-0.2-0.3c0.1,0,0.2-0.1,0.3,0
		C279.8,599.4,279.9,599.5,279.9,599.5z"/>
	<path class="st0" d="M277.9,598.9c-0.1,0-0.1,0.1-0.2,0.1c-0.1-0.1-0.1-0.2-0.2-0.3c0.1,0,0.2-0.1,0.3,0
		C277.8,598.7,277.8,598.8,277.9,598.9z"/>
	<path class="st0" d="M309.3,612.3c-0.1,0-0.2,0.1-0.2,0.1c0-0.1,0-0.2-0.1-0.4c0.1,0,0.2,0,0.2,0.1
		C309.3,612.1,309.3,612.2,309.3,612.3z"/>
	<path class="st0" d="M275,597.8c0.3,0.1,0.6,0.2,0.9,0.3c-0.1,0.1-0.2,0.2-0.2,0.2C275.4,598.2,275.2,598,275,597.8
		C275,597.9,275,597.8,275,597.8z"/>
	<path class="st7" d="M111.7,377.7c0.6,0.1,1.3,0.1,1.9,0.2c1,0.1,2-0.1,2.2,1.3c0.2,1.2-0.2,2.1-1.6,2.3c-9.5,0.7-19,0.2-28.5,1.2
		c-2.2,0-2.2-1.6-1.7-3c0.6-1.7,0.4-4.1,3.5-3.8c6.9,0.7,13.9,1.1,20.8,1.7C109.5,377.6,110.6,377.7,111.7,377.7z"/>
	<path class="st3" d="M85.8,382.7c9.5-1,19-0.5,28.5-1.2c0,0.8,0,1.5,0,2.3c-0.1,1.9-0.7,2.6-3,2.2c-8.2-1.7-16.5-0.4-24.7,0.5
		C86.3,385.2,86.1,383.9,85.8,382.7z"/>
	<path class="st9" d="M91.3,413.4c-0.1-0.5-0.3-0.9-0.4-1.4c6.5-4.2,13.7-6.8,20.4-10.5c0.9,1,0.5,1.8,0.1,2.6
		C104.6,407.2,98,410.3,91.3,413.4z"/>
	<path class="st6" d="M189.4,344.7c3.6,1.7,2.5,4.9,2.7,7.8c-0.2,0-0.4,0.1-0.7,0.1c-0.3-0.8,0.8-2.1-1.4-2.1
		c-4.6,0-5.4-1.6-3.3-5.5C187.6,344.5,188.5,344.5,189.4,344.7z"/>
	<path class="st8" d="M135.7,399.3c-0.2,0-0.4-0.1-0.7-0.1c0.3-0.2,0.5-0.3,0.8-0.5C135.8,398.9,135.8,399.1,135.7,399.3z"/>
	<path class="st12" d="M81.1,174.7c9.2,0,18.5,0,27.7,0c1.3,0,3.2-0.6,3,1.9c-0.1,2.2-1.9,1.5-3,1.5c-18.7,0-37.3,0-56,0
		c-1.2,0-2.9,0.7-3-1.5c-0.1-2.4,1.7-1.8,3-1.9C62.2,174.7,71.7,174.7,81.1,174.7z"/>
	<path class="st12" d="M65.1,187.4c-4.2,0-8.4,0-12.7,0c-1.3,0-2.7,0.2-2.7-1.9c0-2,1.1-2.1,2.6-2.1c8.6,0,17.1,0,25.7,0
		c1.5,0,2.6,0.1,2.6,2.1c0,2.1-1.4,1.9-2.7,1.9C73.5,187.4,69.3,187.4,65.1,187.4z"/>
	<path class="st3" d="M71.4,272.5c-4.1,3.3-10.9,2.1-12.4-2c-0.3-0.7-0.6-1.5-0.1-2.2c0.7-0.9,1.4-0.1,2,0.2
		C64.2,269.7,67.6,271,71.4,272.5z"/>
	<path class="st13" d="M59.8,249.6c0.8,0.1,1.3,0,1.7,0.2c1,0.3,2.7,0.4,2.6,1.6c-0.1,1.5-1.8,0.7-2.8,0.9c-1.1,0.1-2.2,0.1-3.3,0.1
		c-1,0-2.5,1-2.8-0.5c-0.2-1.2,1.4-1.5,2.4-1.8C58.4,249.8,59.3,249.7,59.8,249.6z"/>
	<path class="st13" d="M75.2,251.1c2.9-2,6.5-1.9,8.3,0c0.4,0.4,0.9,0.8,0.5,1.4c-0.2,0.3-0.8,0.4-1.2,0.3
		C80.5,252.2,77.9,252.4,75.2,251.1z"/>
	<path class="st7" d="M70.9,253.8c0,4.4,0,8.7,0,13.1c-0.1,0-0.2,0-0.3,0c0-4.4,0-8.8,0-13.1C70.7,253.8,70.8,253.8,70.9,253.8z"/>
	<path class="st0" d="M205.1,130.7c-2.9-0.5-5.9-0.9-9.6-1.5C199.6,127.4,202.5,128.1,205.1,130.7z"/>
	<path class="st0" d="M180.5,127.9C180.5,127.9,180.4,127.9,180.5,127.9c0.6,1.2,2.6,0.2,3.3,1.9c-3.3,0.1-6.5,0.1-10.2,0.9
		C175.6,127.9,178.4,129.1,180.5,127.9z"/>
	<path class="st15" d="M72.8,225.3c-0.3,0-0.5,0.1-0.8,0.1c0.1-0.2,0.2-0.4,0.3-0.6C72.5,224.9,72.6,225.1,72.8,225.3z"/>
	<path class="st15" d="M51.6,38.4c2.6-0.1,4.9,2.1,5,4.8c0.1,2.9-2,5.2-4.8,5.3c-2.6,0.1-4.9-2.1-5-4.7
		C46.7,40.9,48.9,38.5,51.6,38.4z"/>
	<path class="st3" d="M333,171.8c-2.6-12.3-4-24.9-3.8-37.6c0-2.8-0.5-4.3-3.6-3.7c-0.7,0.1-1.5-0.1-2.3-0.3
		c-1.6-0.4-10.4-0.5-12-0.3c-1.8,0.3-2.2,1.1-1.9,3c1.5,8.7,2.3,17.4,2.5,26.2c0.1,5.3-0.7,10.6-0.7,15.9c0-1.5,0-3,0-4.5
		c0.3-12.3-0.6-24.4-2.7-36.5c-0.4-2.4-1.1-4.1-3.7-5.2c-4.7-2-7.4-7.1-7-12.2c0.2-2.4,0.9-4.5,3.7-4.8c2.8-0.3,3.7,1.7,4.2,3.8
		c1,3.7,1.8,7.3,2.7,11c0.2,1.1,0.4,1.9,1.7,2c2.2,0.1,4.2-0.6,5.9-2c1.2-1-0.2-1.8-0.7-2.5c-1.5-2.7-2.3-5.5-1.4-8.6
		c0.6-2,1.7-3.5,3.9-3.5c2.4,0,3.6,1.8,3.9,3.9c0.5,3,0.3,6.1-1.7,8.6c-1.2,1.5-0.7,2.4,0.7,3.2c1.2,0.6,2.4,1.2,3.7,1.5
		c3.8,0.9,4.7,0.1,4.8-3.9c0.1-3.1-0.4-6.2,0.7-9.3c0.8-2.3,2.4-4,4.9-3.6c2.5,0.4,3.5,2.4,3.7,4.9c0.4,4.8-1.5,8.6-5.5,11
		c-2.2,1.4-2.8,2.9-2.8,5.4c0.1,11.9,0.8,23.8,2.7,35.5C333.1,170.1,333,171,333,171.8z M298.9,117.8c0.3,4.4,2.3,7.6,5.9,9.7
		c1,0.6,2.5,1.1,2.1-0.9c-0.8-3.9-1.9-7.7-3-11.6c-0.3-1-0.9-1.8-2.1-1.8c-1.3,0-2,0.8-2.4,1.9C299.1,116,299.1,117,298.9,117.8z
		 M330.3,122.4c0,1.1,0,2.2,0,3.3c0,0.6,0,1.5,0.4,1.8c0.8,0.6,1.4-0.2,2-0.7c3.5-2.4,4.9-5.9,4.5-10.1c-0.2-1.6-0.9-2.8-2.6-3
		c-1.8-0.2-2.9,0.7-3.5,2.3C330.3,118.2,330.5,120.3,330.3,122.4z M320.5,118.2c0.1-2.2-0.4-4.6-2.7-4.6c-2.4-0.1-2.8,2.3-2.8,4.5
		c0,2.5,0.5,6,2.7,6.1C320,124.2,320.4,120.7,320.5,118.2z"/>
	<path class="st3" d="M358,139.5c4.6-14.4,3.5-28.2-4.9-40.8c-8.4-12.7-20.9-18.8-35.8-20.4c14.8,0.3,26.9,6.1,35.9,18
		C362.8,109.1,364.3,127.6,358,139.5z"/>
	<path class="st3" d="M345.5,153c0.5-1.7,1.6-2.9,3.8-3.7C348.5,151.5,347.1,152.4,345.5,153z"/>
	<path class="st3" d="M333.3,175.2c0,0.1,0-0.5,0-1C334.1,174.7,333.4,175.4,333.3,175.2z"/>
	<path class="st3" d="M356.8,142.4c0.1,0,0.2,0.1,0.2,0.1c0,0.1,0,0.2-0.1,0.3c-0.1,0-0.2-0.1-0.2-0.1
		C356.7,142.6,356.8,142.5,356.8,142.4z"/>
	<path class="st3" d="M426,233c0,2.6-2.3,4.8-5,4.8c-2.7,0-4.9-2.1-4.9-4.8c0-2.6,2.3-4.8,4.9-4.8C423.7,228.2,426,230.4,426,233z"
		/>
	<path class="st12" d="M186.5,318.9c0.1-0.2,0.2-0.5,0.3-0.7c4.1-0.1,7.4-2.5,11.2-3.5c0.9-0.2,1.9-0.6,2.8-0.9
		c-1.4,7.4-4.2,14.4-6.3,22.3c-2.5-4.2-3.3-8.3-5.1-12.1C188.5,322.2,188.5,320,186.5,318.9z"/>
	<path class="st7" d="M140.7,588.5c-0.3-2.6,0.4-5,1.2-7.4c9.2,0.3,18.3,1,27.5,0.7c-0.3,2.4-0.8,4.7-2.3,6.7c-2.4,1.6-4.7,0-7.1,0
		C153.6,588.6,147.1,588.5,140.7,588.5z"/>
	<path class="st0" d="M173.2,593c-0.6-0.5-1.6,1.3-1.7-0.3c0-1.4,1.3-1.6,2.4-1.5c0.7,0,1.4,0.1,1.1,1.1
		C174.8,593.2,174.3,594.2,173.2,593z"/>
	<path class="st0" d="M170.6,597.1c0.1-0.1,0.3-0.2,0.4-0.2c-0.1,0.1-0.2,0.3-0.2,0.4C170.8,597.3,170.6,597.1,170.6,597.1z"/>
	<path class="st2" d="M298.9,117.8c0.1-0.8,0.2-1.8,0.5-2.7c0.4-1.1,1-2,2.4-1.9c1.2,0,1.8,0.8,2.1,1.8c1.1,3.8,2.2,7.7,3,11.6
		c0.4,2-1.1,1.5-2.1,0.9C301.2,125.4,299.2,122.2,298.9,117.8z"/>
	<path class="st2" d="M330.3,122.4c0.1-2.1-0.1-4.2,0.7-6.2c0.7-1.6,1.8-2.6,3.5-2.3c1.7,0.2,2.4,1.4,2.6,3c0.4,4.2-1,7.6-4.5,10.1
		c-0.6,0.4-1.2,1.3-2,0.7c-0.4-0.3-0.4-1.2-0.4-1.8C330.3,124.6,330.3,123.5,330.3,122.4z"/>
	<path class="st2" d="M320.5,118.2c-0.1,2.4-0.5,6-2.8,5.9c-2.2,0-2.7-3.6-2.7-6.1c0-2.1,0.4-4.5,2.8-4.5
		C320.1,113.7,320.6,116,320.5,118.2z"/>
</g>
</svg>
